/* XPM */
static char *_b47175c29a2469bb492988107900a9dmbDLisxhFPzHgIzd[] = {
/* columns rows colors chars-per-pixel */
"64 64 4 1 ",
"  c #6D5E59",
". c #967B68",
"X c #A79B69",
"o c #BEB88D",
/* pixels */
"                                                                ",
"                                                                ",
"  oooooooooooooooooooooooooooo    oooooooooooooooooooooooooooo  ",
"  oooooooooooooooooooooooooooo    oooooooooooooooooooooooooooo  ",
"  ooooooooXXXXXXXXXXXXXXXXXXXX    ooooooooooooXXXXXXXXXXXXXXXX  ",
"  ooooooooXXXXXXXXXXXXXXXXXXXX    ooooooooooooXXXXXXXXXXXXXXXX  ",
"  ooooXXXXXXXXXXXXXXXXXXXXXXXX    ooooXXXXXXXXXXXXXXXXXXXXXXXX  ",
"  ooooXXXXXXXXXXXXXXXXXXXXXXXX    ooooXXXXXXXXXXXXXXXXXXXXXXXX  ",
"  ooooXXXXXXXXXXXXXXXXXXXXXXXX    ooooXXXXXXXXXXXXXXXXXXXXXXXX  ",
"  ooooXXXXXXXXXXXXXXXXXXXXXXXX    ooooXXXXXXXXXXXXXXXXXXXXXXXX  ",
"  ooooXXXXXXXX..ooXXXXXXXXXXXX    ooooXXXX..ooXXXX..ooXXXXXXXX  ",
"  ooooXXXXXXXX..ooXXXXXXXXXXXX    ooooXXXX..ooXXXX..ooXXXXXXXX  ",
"  ooXXXXXXXXXX..ooXXXXXXXXXXXX    ooXXXXXX..ooXXXX..ooXXXXXXXX  ",
"  ooXXXXXXXXXX..ooXXXXXXXXXXXX    ooXXXXXX..ooXXXX..ooXXXXXXXX  ",
"  ooXXXXXX..ooooooooooXXXXXX..    ooXXXXXXXXXX..ooXXXXXXXXXXXX  ",
"  ooXXXXXX..ooooooooooXXXXXX..    ooXXXXXXXXXX..ooXXXXXXXXXXXX  ",
"  ooXXXXXX..ooooooooooXXXXXX..    ooXXXXXXXXXX..ooXXXXXXXXXXXX  ",
"  ooXXXXXX..ooooooooooXXXXXX..    ooXXXXXXXXXX..ooXXXXXXXXXXXX  ",
"  ooXXXXXXXXXX..ooXXXXXXXXXX..    ooXXXXXXXXXX..ooXXXXXXXXXX..  ",
"  ooXXXXXXXXXX..ooXXXXXXXXXX..    ooXXXXXXXXXX..ooXXXXXXXXXX..  ",
"  ooXXXXXXXXXX..ooXXXXXXXXXX..    ooXXXXXXXXXX..ooXXXXXXXXXX..  ",
"  ooXXXXXXXXXX..ooXXXXXXXXXX..    ooXXXXXXXXXX..ooXXXXXXXXXX..  ",
"  XXXXXXXXXXXXXXXXXXXXXXXXXX..    XXXXXXXXXXXXXXXXXXXXXXXX....  ",
"  XXXXXXXXXXXXXXXXXXXXXXXXXX..    XXXXXXXXXXXXXXXXXXXXXXXX....  ",
"  XXXXXXXXXXXXXXXXXXXXXXXX....    XXXXXXXXXXXXXXXXXXXXXXXX....  ",
"  XXXXXXXXXXXXXXXXXXXXXXXX....    XXXXXXXXXXXXXXXXXXXXXXXX....  ",
"  XXXXXXXXXXXXXXXXXXXX........    XXXXXXXXXXXXXXXXXX..........  ",
"  XXXXXXXXXXXXXXXXXXXX........    XXXXXXXXXXXXXXXXXX..........  ",
"  XXXXXXXX....................    XXXXXXXXXXXX................  ",
"  XXXXXXXX....................    XXXXXXXXXXXX................  ",
"                                                                ",
"                                                                ",
"                                                                ",
"                                                                ",
"oooooooooooooo    ooooooooooooooooooooooooXXXX    oooooooooooooo",
"oooooooooooooo    ooooooooooooooooooooooooXXXX    oooooooooooooo",
"XXXXXXoooooooo    ooooooooXXXXXXXXXXXXXXXXXXXX    XXXXXXXXXXXXXX",
"XXXXXXoooooooo    ooooooooXXXXXXXXXXXXXXXXXXXX    XXXXXXXXXXXXXX",
"XXXXXXXXXXoooo    ooooXXXXXXXXXXXXXXXXXXXXXXXX    XXXXXXXXXXXXXX",
"XXXXXXXXXXoooo    ooooXXXXXXXXXXXXXXXXXXXXXXXX    XXXXXXXXXXXXXX",
"XXXXXXXXXXoooo    ooooXXXXXXXXXXXXXXXXXXXXXXXX    XXXXXXXXXXXXXX",
"XXXXXXXXXXoooo    ooooXXXXXXXXXXXXXXXXXXXXXXXX    XXXXXXXXXXXXXX",
"XX..ooXXXXoooo    ooooXXXX..ooXXXX..ooXXXXXXXX    XXXXXXXX..ooXX",
"XX..ooXXXXoooo    ooooXXXX..ooXXXX..ooXXXXXXXX    XXXXXXXX..ooXX",
"XX..ooXXXXXXoo    ooXXXXXX..ooXXXX..ooXXXXXXXX    XXXXXXXX..ooXX",
"XX..ooXXXXXXoo    ooXXXXXX..ooXXXX..ooXXXXXXXX    XXXXXXXX..ooXX",
"XX..ooXXXXXXoo    ooXXXXXXXXXXXXXXXXXXXXXXXX..    XXXXXXXX..ooXX",
"XX..ooXXXXXXoo    ooXXXXXXXXXXXXXXXXXXXXXXXX..    XXXXXXXX..ooXX",
"XX..ooXXXXXXoo    ooXXXXXXXXXXXXXXXXXXXXXXXX..    XXXXXXXX..ooXX",
"XX..ooXXXXXXoo    ooXXXXXXXXXXXXXXXXXXXXXXXX..    XXXXXXXX..ooXX",
"XX..ooXXXXXXoo    ooXXXXXXXXXX..ooXXXXXXXXXX..    ..XXXXXX..ooXX",
"XX..ooXXXXXXoo    ooXXXXXXXXXX..ooXXXXXXXXXX..    ..XXXXXX..ooXX",
"XX..ooXXXXXXoo    ooXXXXXXXXXX..ooXXXXXXXXXX..    ..XXXXXX..ooXX",
"XX..ooXXXXXXoo    ooXXXXXXXXXX..ooXXXXXXXXXX..    ..XXXXXX..ooXX",
"XXXXXXXXXXXXXX    ooXXXXXXXXXXXXXXXXXXXXXX....    ..XXXXXXXXXXXX",
"XXXXXXXXXXXXXX    ooXXXXXXXXXXXXXXXXXXXXXX....    ..XXXXXXXXXXXX",
"XXXXXXXXXXXXXX    ooXXXXXXXXXXXXXXXXXXXXXX....    ....XXXXXXXXXX",
"XXXXXXXXXXXXXX    ooXXXXXXXXXXXXXXXXXXXXXX....    ....XXXXXXXXXX",
"XXXXXXXXXXXXXX    XXXXXXXXXXXXXXXXXXXXXX......    ..........XXXX",
"XXXXXXXXXXXXXX    XXXXXXXXXXXXXXXXXXXXXX......    ..........XXXX",
"..XXXXXXXXXXXX    XXXXXXXX....................    ..............",
"..XXXXXXXXXXXX    XXXXXXXX....................    ..............",
"                                                                ",
"                                                                "
};
