/* XPM */
static char *_8418b2d927c4174f7d3f5b7c322e3a40h5i9vhwJvRQ5xM3[] = {
/* columns rows colors chars-per-pixel */
"64 64 37 1 ",
"  c #231414",
". c #241414",
"X c #261615",
"o c #2A1816",
"O c #3A1E11",
"+ c #321D1D",
"@ c #321E1D",
"# c #331E1E",
"$ c #351F1E",
"% c #39211F",
"& c #232222",
"* c #242222",
"= c #262423",
"- c #2A2624",
"; c #2F2925",
": c #323232",
"> c #333332",
", c #353333",
"< c #393534",
"1 c #452514",
"2 c #532C19",
"3 c #542C19",
"4 c #562D1A",
"5 c #5B2F1B",
"6 c #422727",
"7 c #432727",
"8 c #523030",
"9 c #6E3A21",
"0 c #6F3A21",
"q c #4C433F",
"w c gray26",
"e c #434242",
"r c gray32",
"t c #575555",
"y c #6A6C6E",
"u c #894829",
"i c #838689",
/* pixels */
"ttttyiiyyttttttqttttttittttttttttttttttiyyyyyyyyyyyyiytttttttttt",
"i:::::wwwwwwwwwwwi6666666688888888i999999uuuuuui6666666888888888",
"i:::wwwwwwwwwwww:i6668888888888888i99uuuuuuuuuui6666888888888888",
"i::wwwwwwwwwwwww:i6688888888888888i9uuuuuuuuuuui6688888888888888",
"i:wwwwwwwwwwwww::i6888888888888888i9uuuuuuuuuuui688888888888888+",
"i:wwwwwwwwwwww:::i688888888888888+iuuuuuuuuuuuui688888888888+++ ",
"irww::::::&::::::i++++++++++++++++i999999999999i6++++++++++++++6",
"iiiiiiiiiiiiiiiiiiiiiiiiiiiiiiiiiiiiiiiiiiiiiiiiiiiiiiiiiiiiiiii",
"99uuuuuuuuui:::::wwwwwwwwwwwiwwwwwwwwrrrrrrrriwwwwwwrrrrrri99999",
"uuuuuuuuuuui:::wwwwwwwwwwww:iwwwrrrrrrrrrrrrriwwrrrrrrrrrri9999u",
"uuuuuuuuuuui::wwwwwwwwwwwww:iwwrrrrrrrrrrrrrriwrrrrrrrrrrri99uuu",
"uuuuuuuuuu2i:wwwwwwwwwwwww::iwrrrrrrrrrrrrrrriwrrrrrrrrrrri9uuuu",
"uuuuuuu222Oi:wwwwwwwwwwww:::iwrrrrrrrrrrrrrr:irrrrrrrrrrrri9uuuu",
"22222222229irww::::::*::::::i::::::::::::::::iwwwwwwwwwwwwi92222",
"iiiiiiiiiiiiiiiiiiiiiiiiiiiiiiiiiiiiiiiiiiiiiiiiiiiiiiiiiiiiiiii",
"i@@@@@66666666666i99999999uuuuuuuui666666888888iwwwwwwwrrrrrrrrr",
"i@@@666666666666@i999uuuuuuuuuuuuui668888888888iwwwwrrrrrrrrrrrr",
"i@@6666666666666@i99uuuuuuuuuuuuuui688888888888iwwrrrrrrrrrrrrrr",
"i@6666666666666@@i9uuuuuuuuuuuuuuui688888888888iwrrrrrrrrrrrrrr:",
"i@666666666666@@@i9uuuuuuuuuuuuuu2i888888888888iwrrrrrrrrrrr:::*",
"i866@@@@@@X@@@@@@i3333333333333322i666666666666iw::::::::::::::w",
"iiiiiiiiiiiiiiiiiiiiiiiiiiiiiiiiiiiiiiiiiiiiiiiiiiiiiiiiiiiiiiii",
"wwrrrrrrrrri+++++66666666666iwwwwwwwwrrrrrrrri776666888888iwwwww",
"rrrrrrrrrrri++@666666666666+iwwwrrrrrrrrrrrrti%78888888888iwwwwr",
"rrrrrrrrrrri@@6666666666666+iwwrrrrrrrrrrrrrri788888888888iwwrrr",
"rrrrrrrrrr:i@6666666666666++iwrrrrrrrrrrrrrrri788888888888iwrrrr",
"rrrrrrr:::*i@666666666666+++iwrrrrrrrrrrrrrr:i888888888888iwrrrr",
"::::::::::wi866@+++++.++++++i::::::::::::::::i7777$7777767iw::::",
"iiiiiiiiiiiiiiiiiiiiiiiiiiiiiiiiiiiiiiiiiiiiiiiiiiiiiiiiiiiiiiii",
"rrrrriwwwwwwwrrrrrrrrri2222299999999999iwwwwweeetrrrrrrriwwwwwwr",
"rrrrriwwwwrrrrrrrrrrrri2229999999999992iwwwrrrrrrrrrrrrriwwrrrrr",
"rrrrriwwrrrrrrrrrrrrrri2299999999999992iwwrrrrrrrrrrrrrriwrrrrrr",
"rrrrriwrrrrrrrrrrrrrr:i2999999999999922iwrrrrrrrrrrrrrrriwrrrrrr",
"rrrrriwrrrrrrrrrrr:::=i2999999999999222iwrrrrrrrrrrrrrr:irrrrrrr",
"wwwwwiw::::::::::::::wiu99222232%242222i::::::::::::::::iwwwwwww",
"iiiiiiiiiiiiiiiiiiiiiiiiiiiiiiiiiiiiiiiiiiiiiiiiiiiiiiiiiiiiiiii",
"%6888888888i>>>>:wwwwwwwwwwwi6666666688888888iwwwwwwrrrrrri767%7",
"88888888888i>>>wwwwwwwwwwww:i6668888888888888iwwrrrrrrrrrri76778",
"88888888888i>>wwwwwwwwwwwww:i6688888888888888iwrrrrrrrrrrri77888",
"8888888888%i>wwwwwwwwwwwww:,i6888888888888888iwrrrrrrrrrrri78888",
"8888888@##oi,wwwwwwwwwwwe::,i688888888888888$irrrrrrrrrrrri78888",
"##@-$@####6irww>,,,,:=,,,:::i####@@@$#@$@@@$@iwwwwwwwwwwwwi7####",
"iiiiiiiiiiiiiiiiiiiiiiiiiiiiiiiiiiiiiiiiiiiiiiiiiiiiiiiiiiiiiiii",
"trrrri4444499999999999iwwwwwwwwrrrrrrrri999999uuuuuuiwwwwwwwrrrr",
"rrrrri4449999999999994iwwwrrrrrrrrrrrrri99uuuuuuuuuuiwwwwrrrrrrr",
"rrrrri4499999999999992iwwrrrrrrrrrrrrrri9uuuuuuuuuuuiwwrrrrrrrrr",
"rrrr,i4999999999999944iwrrrrrrrrrrrrrrri9uuuuuuuuuuuiwrrrrrrrrrr",
"rrrr,i4999999999999944iwrrrrrrrrrrrrrrri9uuuuuuuuuuuiwrrrrrrrrrr",
"r,,,;i4999999999999444iwrrrrrrrrrrrtrr,iuuuuuuuuuuuuiwrrrrrrrrrr",
",,,,wiu994444441444444i,,,,,,,,,,,,<,,,i999999999999iw,,,,,,,,,,",
"iiiiiiiiiiiiiiiiiiiiiiiiiiiiiiiiiiiiiiiiiiiiiiiiiiiiiiiiiiiiiiii",
"7777777888888888i,,,,,wwwwwwwwwwwi77%7777788888888iwwwwwwrrrrrri",
"7777888888888888i:<,wwwwwwwwwwww,i%778888888888888iwwrrrrrrrrrri",
"7%88888888888888i::wwwwewwwwwwww,i7788888888888888iwrrrrrrrrrrri",
"788888888888888#i<wwwweewwwwwww,<i7888888888888888iwrrrrrrrrrrri",
"788888888888$##@i:wwwweewwwwww,,,i788888888888888#irrrrrrrrrrrri",
"6$$$$$$#$$$$$$$6iree<:,,,<-<,,<<,i;###%#$$$$$$$$$$iwwwwwwwwwwwwi",
"iiiiiiiiiiiiiiiiiiiiiiiiiiiiiiiiiiiiiiiiiiiiiiiiiiiiiiiiiiiiiiii",
"uuuuui<<<<<eeeeeeeeeeei6666666788888888ieeeeeerrrrrri0009990uuuu",
"uuuuui<<<wweeeeeeeeee<i6668888888888888ieerrrrrrrrrri0009uuuuuuu",
"uuuuui<<eeeeeeeeeeeee<i7688888888888888ierrrrrrrrrrri00uuuuuuuuu",
"uuuu5i<weeeeeeeeeeee<<i7888888888888888ierrrrrrrrrrri0uuuuuuuuuu",
"uuuu5i<eeeeeeeeeeeee<<i7888888888888888ierrrrrrrrrrri0uuuuuuuuuu",
"u5553i<eeeeeeeeeeee<<<i788888888888888%irrrrrrrrrrrri0uuuuuuuuuu"
};
