/* XPM */
static char *result[] = {
/* columns rows colors chars-per-pixel */
"64 64 4 1 ",
"  c #724C3E",
". c #765B49",
"X c #6D5E59",
"o c #967B68",
/* pixels */
"                                                                ",
"...............................  ...............................",
"                             ..  ..                             ",
"............................  .  .  ............................",
"ooooooooooooooooooooooooooo.. .  . ..ooooooooooooooooooooooooooo",
"oooooooooooooooooooooooooooo. .  . .oooooooooooooooooooooooooooo",
"oooooooooooooooooooooooooooo. .  . .oooooooooooooooooooooooooooo",
"oooooooooooooooooooooooooooo. .  . .oooooooooooooooooooooooooooo",
"oooooooooooooooooooooooooooo. .  . .oooooooooooooooooooooooooooo",
"oooooooooooooooooooooooooooo. .  . .oooooooooooooooooooooooooooo",
"oooooooooooooooooooooooooooo. .  . .oooooooooooooooooooooooooooo",
"oooooooooooooooooooooooooooo. .  . .oooooooooooooooooooooooooooo",
"oooooooooooooooooooooooooooo. .  . .oooooooooooooooooooooooooooo",
"oooooooooooooooooooooooooooo. .  . .oooooooooooooooooooooooooooo",
"oooooooooooooooooooooooooooo. .  . .oooooooooooooooooooooooooooo",
"oooooooooooooooooooooooooooo. .  . .oooooooooooooooooooooooooooo",
"oooooooooooooooooooooooooooo. .  . .oooooooooooooooooooooooooooo",
"oooooooooooooooooooooooooooo. .  . .oooooooooooooooooooooooooooo",
"                 ooooooooooo. .  . .ooooooooooo                 ",
"XXXXXXXXXXXXXXXXX oooooooooo. .  . .oooooooooo XXXXXXXXXXXXXXXXX",
"ooooooooooooooooXX ooooooooo. .  . .ooooooooo XXoooooooooooooooo",
"...............ooX ooooooooo. .  . .ooooooooo Xoo...............",
"oooooooooooooo..oX ooooooooo. .  . .ooooooooo Xo..oooooooooooooo",
"ooooooooooooooo.oX ooooooooo. .  . .ooooooooo Xo.ooooooooooooooo",
"ooooooooooooooo.oX ooooooooo. .  . .ooooooooo Xo.ooooooooooooooo",
"ooooooooooooooo.oX ooooooooo. .  . .ooooooooo Xo.ooooooooooooooo",
"ooooooooooooooo.oX ooooooooo. .  . .ooooooooo Xo.ooooooooooooooo",
"ooooooooooooooo.oX ooooooooo. .  . .ooooooooo Xo.ooooooooooooooo",
"ooooooooooooooo.oX ooooooooo. .  . .ooooooooo Xo.ooooooooooooooo",
"ooooooooooooooo.oX ooooooooo. .  . .ooooooooo Xo.ooooooooooooooo",
"ooooooooooooooo.oX ooooooooo. .  . .ooooooooo Xo.ooooooooooooooo",
"ooooooooooooooo.oX ooooooooo. .  . .ooooooooo Xo.ooooooooooooooo",
"ooooooooooooooo.oX ooooooooo. .  . .ooooooooo Xo.ooooooooooooooo",
"ooooooooooooooo.oX ooooooooo. .  . .ooooooooo Xo.ooooooooooooooo",
"ooooooooooooooo.oX ooooooooo. .  . .ooooooooo Xo.ooooooooooooooo",
"ooooooooooooooo.oX ooooooooo. .  . .ooooooooo Xo.ooooooooooooooo",
"ooooooooooooooo.oX ooooooooo. .  . .ooooooooo Xo.ooooooooooooooo",
"ooooooooooooooo.oX ooooooooo. .  . .ooooooooo Xo.ooooooooooooooo",
"ooooooooooooooo.oX ooooooooo. .  . .ooooooooo Xo.ooooooooooooooo",
"ooooooooooooooo.oX ooooooooo. .  . .ooooooooo Xo.ooooooooooooooo",
"ooooooooooooooo.oX ooooooooo. .  . .ooooooooo Xo.ooooooooooooooo",
"oooooooooooooo..oX ooooooooo. .  . .ooooooooo Xo..oooooooooooooo",
"...............ooX ooooooooo. .  . .ooooooooo Xoo...............",
"ooooooooooooooooXX ooooooooo. .  . .ooooooooo XXoooooooooooooooo",
"XXXXXXXXXXXXXXXXX oooooooooo. .  . .oooooooooo XXXXXXXXXXXXXXXXX",
"                 ooooooooooo. .  . .ooooooooooo                 ",
"oooooooooooooooooooooooooooo. .  . .oooooooooooooooooooooooooooo",
"oooooooooooooooooooooooooooo. .  . .oooooooooooooooooooooooooooo",
"oooooooooooooooooooooooooooo. .  . .oooooooooooooooooooooooooooo",
"oooooooooooooooooooooooooooo. .  . .oooooooooooooooooooooooooooo",
"oooooooooooooooooooooooooooo. .  . .oooooooooooooooooooooooooooo",
"oooooooooooooooooooooooooooo. .  . .oooooooooooooooooooooooooooo",
"oooooooooooooooooooooooooooo. .  . .oooooooooooooooooooooooooooo",
"oooooooooooooooooooooooooooo. .  . .oooooooooooooooooooooooooooo",
"oooooooooooooooooooooooooooo. .  . .oooooooooooooooooooooooooooo",
"oooooooooooooooooooooooooooo. .  . .oooooooooooooooooooooooooooo",
"oooooooooooooooooooooooooooo. .  . .oooooooooooooooooooooooooooo",
"oooooooooooooooooooooooooooo. .  . .oooooooooooooooooooooooooooo",
"oooooooooooooooooooooooooooo. .  . .oooooooooooooooooooooooooooo",
"ooooooooooooooooooooooooooo.. .  . ..ooooooooooooooooooooooooooo",
"............................  .  .  ............................",
"                             ..  ..                             ",
"...............................  ...............................",
"                                                                "
};
