/* XPM */
static char *_14c288041db4ef3e6568cee72e1b7e1ObZhgRJQmfIDzq0l[] = {
/* columns rows colors chars-per-pixel */
"64 64 10 1 ",
"  c gray20",
". c gray21",
"X c gray22",
"o c #3F3F3F",
"O c #786322",
"+ c gray29",
"@ c #606060",
"# c #CECA58",
"$ c #D9D45D",
"% c #EAE464",
/* pixels */
"@@@@@@@@@@@@@@@@@@@@@@@@@@@@@@@@@@@@@@@@@@@@@@@@@@@@@@@@@@@@@@@@",
"@+++++++++++++++@++++++++++++++@@+++++++++++++++@OOOOOOOOOOOOOO@",
"@+ooXooX.oXXX.X+@+ooXXX ... ..+@@+oooXXXXoXoXXX+@O%%$%%%%%%%#$O@",
"@+XoXoXoXoooo+X+@+oXXXo X.. . +@@+XoXXoooXooooX+@+############O@",
"@+XoXXXooXooooX+@+ooXXoXXX. . +@@+.oXXooXoXXooo+@+$%$%%#%%%%%%O@",
"@+.oXoXoXoXXXoX+@+XooXXXX.. . +@@+XoXooXoXooXoX+@+############O@",
"@+XXXoXooXoooXX+@+ooXXXXX.... +@@+.oXoXoXoXoooX+@+%%#%%%%%%%%%O@",
"@+X+oXXoXoXoX+X+@+oooXoXXX.X..+@@+.+XXXooXooXoX+@+############O@",
"@+.oXXXooXXoooX+@+oooXXXX..X. +@@+XooXooXXooXoX+@+$%%%%%%%%%%%O@",
"@+XoooXoXoooXoX+@+oXoXoXXX....+@@+XoXXXoXooXooX+@+############O@",
"@+.oXXXooXoXXXX+@+oXoXoXXX....+@@+X+XooXoXXoXoX+@+%%%%%$%%%%#$O@",
"@+.+XoXoXoXoo+X+@+ooXXXXX... .+@@+XXXoXoXooXooo+@+############O@",
"@+X+XoXoXoXooXX+@+oooXXXXX.. .+@@+X+.XoXXooXooX+@+%%%%%$%%$%%%O@",
"@+.XXXoXoXooooX+@+oXoXoXX.....+@@+XoXXXooXoXXoX+@+############O@",
"@+++++++++++++++@++++++++++++++@@+++++++++++++++@++++++++++++++@",
"@@@@@@@@@@@@@@@@@@@@@@@@@@@@@@@@@@@@@@@@@@@@@@@@@@@@@@@@@@@@@@@@",
"@@@@@@@@@@@@@@@@@@@@@@@@@@@@@@@@@@@@@@@@@@@@@@@@@@@@@@@@@@@@@@@@",
"@+++++++++++++++@OOOOOOOOOOOOOO@@OOOOOOOOOOOOOO@@++++++++++++++@",
"@+ooXoXoXoXoXXX+@O%%$%%%%%%%#$O@@O%%$%%%%%%%#$O@@++XoXX XX. . +@",
"@+XoXXXooXooooX+@+############O@@+############O@@+oXXXX.X.. ..+@",
"@+.oXoXoXoXXooo+@+$%$%%#%%%%%%O@@+$%$%%#%%%%%%O@@+ooXXXXXX. ..+@",
"@+XooXXooXooXoX+@+############O@@+############O@@+ooXXXoX.. . +@",
"@+XoXXXoXoXoooX+@+%%#%%%%%%%%%O@@+%%#%%%%%%%%%O@@+oXoXoXX.. . +@",
"@+XoooXooXooXoX+@+############O@@+############O@@+ooXXXXXX.X. +@",
"@+X+XoXoXooXXoX+@+$%%%%%%%%%%%O@@+$%%%%%%%%%%%O@@+oooXXXX..X. +@",
"@+XXXooXoXXoooX+@+############O@@+############O@@+oXoXoXXX.X..+@",
"@+XooXXoXooXXoX+@+%%%%%$%%%%#$O@@+%%%%%$%%%%#$O@@+ooXXXXXX.X..+@",
"@+XoXXoXoXooX+X+@+############O@@+############O@@+oooXoXX... .+@",
"@+.oXXXoXoXoooX+@+%%%%%$%%$%%%O@@+%%%%%$%%$%%%O@@+oXo.XXX...  +@",
"@+.+XooXXXoooXX+@+############O@@+############O@@+oooXo.X... .+@",
"@+++++++++++++++@++++++++++++++@@++++++++++++++@@++++++++++++++@",
"@@@@@@@@@@@@@@@@@@@@@@@@@@@@@@@@@@@@@@@@@@@@@@@@@@@@@@@@@@@@@@@@",
"@@@@@@@@@@@@@@@@@@@@@@@@@@@@@@@@@@@@@@@@@@@@@@@@@@@@@@@@@@@@@@@@",
"@OOOOOOOOOOOOOO@@++++++++++++++@@+++++++++++++++@++++++++++++++@",
"@O%%$%%%%%%%#$O@@+oXXXX ... . +@@+oooXXXXoXoXXX+@++XoXX XX. . +@",
"@+############O@@+oooXX XX. ..+@@+XoXXoooXooooX+@+oXXXX.X.. ..+@",
"@+$%$%%#%%%%%%O@@+ooXXXXXX. . +@@+.oXXooXoXXooo+@+ooXXXXXX. ..+@",
"@+############O@@+oooXoXX.. ..+@@+XoXooXoXooXoX+@+ooXXXoX.. . +@",
"@+%%#%%%%%%%%%O@@+XoXXXXXX. . +@@+.oXoXoXoXoooX+@+oXoXoXX.. . +@",
"@+############O@@+oooXoXX..X. +@@+.+XXXooXooXoX+@+ooXXXXXX.X. +@",
"@+$%%%%%%%%%%%O@@+oooXo.XX.X..+@@+XooXooXXooXoX+@+oooXXXX..X. +@",
"@+############O@@+oXXXoXX..X..+@@+XoXXXoXooXooX+@+oXoXoXXX.X..+@",
"@+%%%%%$%%%%#$O@@+oo+XXXXX.X..+@@+X+XooXoXXoXoX+@+ooXXXXXX.X..+@",
"@+############O@@+XoXXXXX...  +@@+XXXoXoXooXooo+@+oooXoXX... .+@",
"@+%%%%%$%%$%%%O@@+ooXXo.XX..  +@@+X+.XoXXooXooX+@+oXo.XXX...  +@",
"@+############O@@+oooXXX.... .+@@+XoXXXooXoXXoX+@+oooXo.X... .+@",
"@++++++++++++++@@++++++++++++++@@+++++++++++++++@++++++++++++++@",
"@@@@@@@@@@@@@@@@@@@@@@@@@@@@@@@@@@@@@@@@@@@@@@@@@@@@@@@@@@@@@@@@",
"@@@@@@@@@@@@@@@@@@@@@@@@@@@@@@@@@@@@@@@@@@@@@@@@@@@@@@@@@@@@@@@@",
"@OOOOOOOOOOOOOO@@++++++++++++++@@OOOOOOOOOOOOOO@@++++++++++++++@",
"@O%%$%%%%%%%#$O@@+ooXXX ... ..+@@O%%$%%%%%%%#$O@@+oXXXX X.. . +@",
"@+############O@@+oXXXo X.. . +@@+############O@@+oooXX XX... +@",
"@+$%$%%#%%%%%%O@@+ooXXoXXX. . +@@+$%$%%#%%%%%%O@@+oXXXXXXX. . +@",
"@+############O@@+XooXXXX.. . +@@+############O@@+oooXoXX.. ..+@",
"@+%%#%%%%%%%%%O@@+ooXXXXX.... +@@+%%#%%%%%%%%%O@@+oooXoXX.. ..+@",
"@+############O@@+oooXoXXX.X..+@@+############O@@+oXXXXXXX... +@",
"@+$%%%%%%%%%%%O@@+oooXXXX..X. +@@+$%%%%%%%%%%%O@@+oooXXXX..X. +@",
"@+############O@@+oXoXoXXX....+@@+############O@@+oXoXoXXX.X..+@",
"@+%%%%%$%%%%#$O@@+oXoXoXXX....+@@+%%%%%$%%%%#$O@@+ooXXXXXX.X..+@",
"@+############O@@+ooXXXXX... .+@@+############O@@+oooXoXX... .+@",
"@+%%%%%$%%$%%%O@@+oooXXXXX..  +@@+%%%%%$%%$%%%O@@+oXo.XXX...  +@",
"@+############O@@+oXoXoXX... .+@@+############O@@+oooXo.X... .+@",
"@++++++++++++++@@++++++++++++++@@++++++++++++++@@++++++++++++++@",
"@@@@@@@@@@@@@@@@@@@@@@@@@@@@@@@@@@@@@@@@@@@@@@@@@@@@@@@@@@@@@@@@"
};
