/* XPM */
static char *_fda9db4c5ab4eddb4a3d56c8a5b7a85QvwcMvTxQXdVhgnx[] = {
/* columns rows colors chars-per-pixel */
"64 64 236 2 ",
"   c #090909",
".  c #130F0F",
"X  c #1D130E",
"o  c #110F11",
"O  c #141315",
"+  c #1C1513",
"@  c #161619",
"#  c #1A171A",
"$  c #1B1A1D",
"%  c #24170F",
"&  c #231712",
"*  c #281711",
"=  c #251914",
"-  c #2B1B15",
";  c #241C1B",
":  c #2B1E1A",
">  c #321E15",
",  c #311F1A",
"<  c #26201D",
"1  c #2C211E",
"2  c #342116",
"3  c #382417",
"4  c #34231B",
"5  c #3A251B",
"6  c #3C291D",
"7  c #1C1A20",
"8  c #261F20",
"9  c #2D2422",
"0  c #2A2829",
"q  c #322623",
"w  c #392621",
"e  c #342A26",
"r  c #3C2B25",
"t  c #352C2B",
"y  c #3A2E2A",
"u  c #3F3027",
"i  c #3C312D",
"p  c #2E2E33",
"a  c #332F30",
"s  c #353436",
"d  c #3D3432",
"f  c #45271D",
"g  c #432D1D",
"h  c #472B26",
"j  c #432D24",
"k  c #562E29",
"l  c #483425",
"z  c #43322C",
"x  c #4B342D",
"c  c #53352D",
"v  c #423532",
"b  c #4A3633",
"n  c #453935",
"m  c #4B3A34",
"M  c #453B3A",
"N  c #4B3D3A",
"B  c #543C34",
"V  c #573C37",
"C  c #5B3C35",
"Z  c #623C37",
"A  c #4A4139",
"S  c #4C413D",
"D  c #54423C",
"F  c #5C433B",
"G  c #5B453C",
"H  c #63443D",
"J  c #66463E",
"K  c #3E3C44",
"L  c #4A3E40",
"P  c #4D4442",
"I  c #4B4648",
"U  c #534643",
"Y  c #554945",
"T  c #574947",
"R  c #5B4B44",
"E  c #5B4D4B",
"W  c #5C514D",
"Q  c #464650",
"!  c #574E52",
"~  c #5D5253",
"^  c #5A545B",
"/  c #634B44",
"(  c #674B47",
")  c #6A4D45",
"_  c #744C48",
"`  c #6D5246",
"'  c #64524B",
"]  c #69574B",
"[  c #6C544B",
"{  c #73544C",
"}  c #76584E",
"|  c #635653",
" . c #6A5653",
".. c #645955",
"X. c #6A5A54",
"o. c #655A5B",
"O. c #6C5D5A",
"+. c #745B53",
"@. c #785B57",
"#. c #7B5C54",
"$. c #6C615E",
"%. c #766351",
"&. c #7C6156",
"*. c #74635C",
"=. c #7C625B",
"-. c #5B5761",
";. c #675F66",
":. c #5E6466",
">. c #6D6363",
",. c #6B6569",
"<. c #746662",
"1. c #7B6664",
"2. c #756A66",
"3. c #7B6A63",
"4. c #766C6A",
"5. c #7B6D6A",
"6. c #7C716D",
"7. c #6B6C7B",
"8. c #766C73",
"9. c #6A7276",
"0. c #797577",
"q. c #80504D",
"w. c #835B57",
"e. c #836156",
"r. c #83655C",
"t. c #89655C",
"y. c #85695E",
"u. c #896A5F",
"i. c #846B63",
"p. c #896965",
"a. c #8C6D64",
"s. c #936967",
"d. c #916E65",
"f. c #877065",
"g. c #8C7166",
"h. c #83736C",
"j. c #8D736B",
"k. c #907166",
"l. c #94746B",
"z. c #99756D",
"x. c #957A6C",
"c. c #837572",
"v. c #857974",
"b. c #8A7B77",
"n. c #957B72",
"m. c #977A76",
"M. c #9C7C74",
"N. c #A47D79",
"B. c #8D847D",
"V. c #998177",
"C. c #9D837B",
"Z. c #A4847B",
"A. c #A4867B",
"S. c #A9857D",
"D. c #AA897E",
"F. c #B0817F",
"G. c #717485",
"H. c #787A87",
"J. c #857D83",
"K. c #7C848C",
"L. c #878587",
"P. c #998A87",
"I. c #878A97",
"U. c #959294",
"Y. c #9B9695",
"T. c #92939A",
"R. c #9A9599",
"E. c #9D999B",
"W. c #A38B82",
"Q. c #AC8C82",
"!. c #A88B87",
"~. c #B18D84",
"^. c #A8928A",
"/. c #AD938B",
"(. c #B4948B",
"). c #B6978C",
"_. c #AB9591",
"`. c #A79B98",
"'. c #B49B92",
"]. c #BB9C94",
"[. c #B99D98",
"{. c #A7A09F",
"}. c #B7A29A",
"|. c #BDA39C",
" X c #8B8EA3",
".X c #8B8EA5",
"XX c #8D91A6",
"oX c #8D98A1",
"OX c #8F93A8",
"+X c #9897A5",
"@X c #9295AB",
"#X c #9599AE",
"$X c #979BB0",
"%X c #9A9EB3",
"&X c #A49EA1",
"*X c #99A2A6",
"=X c #9DA1B6",
"-X c #A5A3A3",
";X c #AAA5A5",
":X c #A8A6A9",
">X c #ACAAAA",
",X c #B5A5A4",
"<X c #BCA8A4",
"1X c #B1ADAD",
"2X c #A5A7B9",
"3X c #A2A6BC",
"4X c #B1AFB0",
"5X c #B2B2B1",
"6X c #B5B2B4",
"7X c #B9B5B5",
"8X c #BAB7B8",
"9X c #BDBABC",
"0X c #C09D96",
"qX c #C3A49D",
"wX c #C7A89C",
"eX c #C5AAA3",
"rX c #C5ABA6",
"tX c #CAADA5",
"yX c #C7B2AD",
"uX c #C9B5B3",
"iX c #C1BCBD",
"pX c #CCBCBC",
"aX c #D2BCB7",
"sX c #C1C0BF",
"dX c #B3B5C3",
"fX c #C1BEC1",
"gX c #CDBFC0",
"hX c #C5C2C4",
"jX c #C9C5C7",
"kX c #CDCACD",
"lX c #CDCAD0",
"zX c #D1CED1",
"xX c #D4D1D4",
"cX c #DDDCDE",
"vX c #E1DFE0",
"bX c #E2E0E1",
/* pixels */
"U.jXjXhXfX8X6X9XkXlXlXkXjXjXkXkXkXkXkXxXxXxXxXxXxX8X`.,.>.~ 0.v.2.$.$.2.0.6.6.6.$.2.0.P.-X-XR.Y.Y.R.&XE.E.{.E.{.{.{.{.-X>X;X{.0.",
"U.dXhXhXfX9XdX8X5XhXzXzXlXlXkXkXkXkXkXkXzXzXxXjX&XJ.0.6.>.4.2.2.2.6.$.2.B.*.2.*.v.6.h.v.L.P.U.Y.Y.Y.R.Y.Y.Y.Y.U.U.Y.;X{.5X>X>X0.",
"U.dXhXhXsXsX9X9X8X8XsXlXxXzXkXkXkXjXkXkXkXkXjXE.,.o.6.0.v.6.5.2.$.$.Y W W ~ ......v.6.5.v.b.v.B.P.Y.`.;X{.>X1X5X7X8X5X{.Y.{.>XJ.",
"U.fX9XhXhXhXsX9X9XdX8X8XsXxXxXkXkXkXkXkXkXkX:X,.! Y M o.o.2...M A Y A i i A Y *.<.n A ..6.v.v.v.2.v.P.-X7XiXiXiX5X{.{.E.E.*X{.0.",
"Y.hX9X9XhXhXhXsXsXsXsX9X8XsXxXxXxXkXkXhXhX:X,.>.$.! S A ~ W Y A q P A 1 t e e A | W n n A $.c.v.v.2.2.v.{.1X;X{.;X:X;X>X>X1X1XB.",
"U.hXsX9XsXjXhXhXsXhXsXsXsX8X8XjXzXzXkXhX9XL.6.4.2.<.$.I W a A M & A i ; 1 y 4 1 P | P i n z Y X.h.v.*.$.2.B.>X1X1X,X6XiXsXiXsXL.",
"U.hXsX9X9XsXjXhXhXsXsX9X8X5X5X>X8XkXkXjXE.c.6.2.6.*.W Y S i e e 1 i i X ; d e < A W ~ n 1 e v N F 6.6.$.W $.L.5X6XiXhXiXiXsXsXU.",
"U.fXfX9X6X5X9XsXdX6X6X5X5X5X5X>X>X6XhXfXJ.,.2.6.2.$.~ D d n e A Y i e + e A t + S W ~ n e 1 t M u D %.<.$.R $.P.pXjXjXhXhXsXhXR.",
"L.8X9X8X>X>X:X6X9X6X6X6X6X6X6X8X6X1X;XJ.5.O.$.| n y 4 t v y v ' | n i y n M 9 9 T Y E M y : 9 d e r R *.*.W W o.6XkXkXkXkXkXzXU.",
"L.5X5X6X5X>X;X:X5X9X6X6X6X8X8X6X6X6XU.<.| Y n : : ; : 1 i v U <.| R W S v n d E P d ~ d t q d y 1 1 z U ..$.Y ~ 0.gXxXxXxXxXzXY.",
"K.1X>X1X6X6X1X>X:X5X5X6X6X6X5X6X7X7XL...U r q 1 < 4 r r v N ' | X.<.Y D n y Y P d M E e t i v < = = 1 m A Y I Y ~ U.hXkXxXzXzX`.",
"L.5X5X6X8X6X8X8X8X5X>X8X8X9X8X8X7XiXP.| z r z v A R  .O.o./ o.O.$.U Y A N E S i v ~ e d y d i + 9 = & i M d A P L ~ iXgXpXjXxX+X",
"E.jXjX>XR.Y.R.T.E.R.R.-X-X{.-X{.-X`.P.| Y <.i.3.n.P.P./.P.m.v.i.3.R m U R n v v U v i d i i ; < 9 + = t e i t A S d B.Y.Y.^.^.0.",
">XvXcX*Xp 0 0 0 0 0 0 0 0 p p p M 1.<. .b.`.`./.'.[.<XeX<X[._.!.C.h.' U m m m D m M z y i q 9 e = = ; e + < < e d A S d ' x.V.] ",
">XbXcX{.p 7 7 7 $ @ @ $ @ @ @ $ s *. .>.,X<X<X<X|.[.eXeXrXeXeXrX}._.M.j.@.E D n m z r i q 1 q 4 = < 9 e X ; + q e i A A A ] ] W ",
":XbXcX-Xp @ 7 $ 7 $ O @ O O @ $ i O.O.`.pXuXyXeX|.|.eXeXrXeXrXrXqX}.].'.A.n.3. .U A m z z r q : q 1 t : X e < < a e A A u u A A ",
"-XbXcX:Xs @ 7 7 7 @ O @ O O O $ t 6.b.pXgXpXuXtXqXqXqXqXrXqXrXqX}.[.].].)./.V.x.p.=.{ R D z z y 4 e e y d s e < e i d Y d j i s ",
"oXxXzX:Xs @ @ 7 $ @ O @ O O # # 0 6.Y.gXgXgXaXtXrXrXqXqXqXqXrX0X).'.].).(.~.D.A.M.n.j.3.@./ D x y q e i S n e ; < e a A A i u d ",
"0.=X2XI.p @ $ 7 $ ; ; : < ; ; $ P 5.,XpXpXpXuXtXrX0XrX0X0XqX0X[.].].).).~.Q.D.D.A.C.C.m.j.3.] D z y e 1 n d 0 1 < 1 e M W u e s ",
"K.K.K.9.p @ $ < e v M n m n v i ..5.7XpXpXaXyXtXrXqX0X0X0XqXqX[.].].).).Q.D.D.D.S.W.W.W.A.n.*.G n j y t d t i t d i e d S d 4 a ",
"oXlXsXoXp @ < n m m z i z r r z 8.s.uXaXuXuXyXtXtX0XqX0XtX0XwX0XqX].).).).D.D.).Q.Q.Q.Q.^.C.f.] b i i i i i d d t t t t Y A < p ",
"K.dXdX*Xs 0 z A x r w r q : q q 1.J.gXuXrXrXuXtXqX0XqXtXtXtXtXwXwX|.0XqX).~.D.D.Q.Q.Q.^./.C.j.' A i z n i i i t 1 0 4 e Y S 1 a ",
"K.$XoX0.d l A l j w q q 4 4 q , o.,XaXrX0X0X0X0X0X0XqXtXtX0XwXtXwXwX).).(.~.Q.Q.Q.D.Q.Q.P.V.f.' D D U M i y i e 1 t e i A Y 1 a ",
"K.3X*XK.S A 6 6 j w , 4 4 q q , c.,XJ.(.(.0XJ.(.0X0X0XtXqXwX0X0X0X).).).~.D.D.D.D.D.A.A.V.i.+.E D Y U A d i i < < t i 0 s Y e a ",
"K.oXK.0.A e 3 6 u 3 1 2 1 6 q W P.P.h. .O.@.p.S.z.Q.~.].0X0X0X0XA.Z.S.S.Z.Z.S.Z.Z.Z.x.l.f.+.' ' / U U L N y t : < 4 i e n ..M p ",
"9.K.9.:.u 3 e 6 u 3 1 2 6 A B.^.1.*.h.6.' r D p.r.N.Q.N.N.J.N.z.z.d.z.M.N.Z.S.A.Z.z.k.u.%.` / R E U U N v y y ; < < e e d ~ M M ",
"9.K.9.G 6 1 6 6 u 4 2 u ^.B.P.^.h.*.R U E ..r G } l.z.s.i.r.p.s.d.z.N.M.A.S.Z.M.M.l.g.r.[ ] D F E U U V b i e 1 = < 1 0 A ..I ! ",
"9.B.:.A 1 3 6 g g 3 2 2 m J.,X^.h./ N t v U ' g ` l.p.{ V V V R e.a.d.z.N.S.Z.M.x.k.a.a.&./ F D U / T L M z y q < < 1 i A ,.2.^ ",
":.9.W u < < 6 g 6 3 3 4 | {.}.^.i.| O.q t M ] &.A.}.V.c g 6 S Y | *.1.+.e.x.C.Z.M.k.g.j.g.3.{ F V Y E U N b y t q ; e y ^ $.8.^ ",
"L.U.Y e 2 - 6 l 3 2 3 6 5.,X|.{.!.b.c.X.( o.*.y.} V.u.%.l G e ; ; e V O.&.[ =.l.n.l.j.k.g.l.g.@.R V U N M v v t q 1 t Y >.^ 0.^ ",
"*XE.A 3 < < 6 l 3 = 2 6 6.,X,X,X,X_.h.*.*.@.=.t.).0Xu.k A z e : ; ; y v V *.( &.a.j.j.g.k.l.j.j.+.b N N v z v y q t I ;.~ ,.,.^ ",
"U.B.u 2 = = 6 l 3 2 2 6 5.,XyXuX<X`.m.h.1.1.c.~.wX0Xu.F G A r y 0 & $ e j b *.B ' r.a.a.j.l.l.l.i.b N v v z v y y M | >.! ,.>.^ ",
"8...j : : = 6 l 3 2 2 3 ] <XyXyXrX7X,X]._.'.S.tX0XS.d.` *.( T T E L M L w , m.!.%.] u.a.k.x.k.x.g.D m n b v y v v L o.,.~ ,.;.! ",
",.R g 4 : : 5 l 3 % 2 2 u `.7XiXuXyXyXrXyXrXtXtX~.x.d.[ E L ( )  .@._ L V b V R J } %.u.k.x.x.x.f.A D D m N v v M T <.o.~ ,.;.! ",
"W b 6 4 : - > g 6 2 2 2 2 ] }.<X<XyXuXaXgX<XtX0XZ.z.s.#.[ *.1.5.1.t.@._ ( ' { [ ` { e.e.e.e.u.f.+.b S N N v v v L ~ 5.o.~ ;.-.! ",
"A l 6 - : = > l 6 2 2 3 2 u ^.}.|.uXaXyX^.aX0X~.M.d.z.s.p.m.m.P.J.J.J.z.p.i.&.j.f.u.g.u.a.a.y.y.F v N , r v v v U o.4.o.~ o.^ ! ",
"M g 5 2 : = - g g 3 2 3 2 l `.'.}.|.^.V.yXuX0XN.z.t.l.z.l.W.^.!._._._.^.P.V.g.A.V.C.V.x.l.l.x.x.] U i X = 1 y N o.o.>.o.~  .^ ! ",
"M 6 6 4 ; - - g l 3 3 3 1 D }.'.^.^.Q.yXaXrX0XQ.z.s.t.s.p.Z.'.'._.'.[.'.).n.Q.^.Q.Q.A.M.g.g.a.g.] ' Y z m j 4 Y O.O.*.o.~ ;.~ N ",
"v 4 4 4 = = = 6 g g 5 3 - ] }.'.'././.uXrX0X(.W.M.s.a.#.p.z.).[.0X0X].].Q.C.~./.~.!.A.x.l.a.i.i.' R R ] y.f.a.n.N.M.1.^ ~ ;.~ L ",
"d 4 6 4 = = = 3 f g f 3 - $.}.'.]./.A.~.!.W.l.d.s.z.N.t.p.N.z./.0XrXeX~.Z.Z.Q.Q.Z.Z.M.l.g.a.y.=.R G R =.&.r.r.i._ @.4.~ E o.! ! ",
"d 2 5 6 = = & , 6 g g 3 3 3.}.'.'.A.A.A.&.+./ J _ s.m.s.@.z.Z.s.l.N.W.Q.Q.S.Z.M.N.M.l.k.g.a.y.+.[ R =.[ Z H J @.Z ( @.^ ~  .~ L ",
"p 2 5 5 : * & = 3 g g 3 2 6.'.'.].^.].}.g.) h > > C @.w.@.s.N.W.M.l.z.z.x.N.M.l.l.k.d.a.a.j.=.=.*.+.h. .f Z w.t.) _  . .~ ~ o.L ",
"t 6 4 6 4 * & % 3 6 6 3 2 2.}.'.).).'.C.y.} H C B h b _ s.m.M.M.M.M.M.l.l.l.l.l.l.k.a.a.i.i.3.@.*.r.n.p.k k _ t._ @.T ^ ~ ~ o.! ",
"t 6 4 5 4 - % & 3 3 g 3 % $.`.).'.W.m.a.` J ' F / +.w.j.m.M.M.N.M.M.z.z.z.k.k.k.k.a.p.y.i.i.+.' @.h.j.s._ _ _ q.q.( v ! E ! | L ",
"t 4 2 2 3 - & = 2 3 j 4 % $.`.'.M.g.M.z.r.` } H / { i.s.M.Z.V.M.z.l.l.l.k.a.a.k.g.u.y.r.=.+.G / +.f.p.#.w.t.t.q.@.M 0 L ! L E T ",
"t 2 > > > > * % - 3 6 6 % R ^.Q.=.&.A.N.z.d.d.{ H H } i.l.M.A.M.l.k.k.k.u.u.g.g.a.y.=.#.+.D N / @.a.i.k.l.z.w. .q M a L E ! L L ",
"s > > > 2 2 * % % 3 6 6 - A V.V.] F / k _ t.t.e._ Z J ) +.i.l.z.l.a.k.u.u.u.y.y.r.=.r.+.G B z G i.z.z.M.s.r.@.8 o 0 t M 4.c.T L ",
"s 4 > , > 2 = % % 2 2 6 1 i x.M.H B Z f > k f k J _ J C C / ) #.a.a.u.u.u.y.r.&.#.&.&.] D x m X.#.j.M.d.m.s.L o o O 8 9 ;.P.>.L ",
"G.H.-.v 8 , = & & & > 3 > t h.x.` j.M.s.J k Z f 5 h k k h k C ) y.u.u.u.y.#.#.#.&.%.} J G m m @.( w.m.n.j.$.0 O o o # ; P ^.P.P ",
"H.dXdX#XK.:.I 8 + & > > > = *.n.j.Q.Q.F.N.s.q._ Z k k w > , f C } y.u.t.#.{ ) #.+.] J F / m D +.V _ p.j...P @ O o o # # 0 P._.>.",
"H.3X3XdXdX3X=X.X7.s * > 2 X U x.C.Q.S.z.N.N.N.s.w.q._ _ { / f c J e.} ` ` ) ) [ ' J G B V b R +.F ) +.1.Y ; O O o o o $ ; ^.`.5.",
"H.3X=X=X3X3X3X3X3X+X;.- 1 X e ] M.D.M.s.w.s.s.w.q.@.w.p.a.r.} V %.} ) H ) ) ] / / J F G m b ' @.` +.i.1.0 O O @ o o o @ 1 P.}.h.",
"H.3X=X=X3X3X3X3X%XdX=X0.< + < ' j.A.l.) k h k b Z _ +.w.t.p.p.) #.#.J H / ) / F G J G m x D +.%.+.=.r.O.+ O O O o o o @ 7 `.|.B.",
"G.=X$X$X%X$X%X%X%X=X=X%X7.$ X D n.~.Q.a.{ H V c Z L J } a.k.r.} } ` H Z F F c h x G B x x G +.&.=.r.i.O.O O @ O O o o @ ! <X|.b.",
"G.$X$X@X@X$X@X$X%X%X=X%X%XK.s W M.).(.0XW.s.p.s.s.w.w.s.z.#.J B C / J C x h j j j D m x m / +.=.i.i.i.h.9 O # # O o O $ P.rXwXB.",
"G.OX.X.X.X@XOX@X$X$X$X%X3X3X9.P s.(.~.(.N.J.N.N.N.N.m.m.a.) h h x V F l 4 6 h l x x x l G ) +.r.i.i.g.c.8.G.H.J.H.^ @ 0 }.|.wXc.",
"G..XXX.X.X.X.XOX@X#X$X%X3X%X#X^ =.M.M.M.M.z.a.l.l.z.m.z.w.C h b h z h ; * , x x l j x c G +.r.r.p.p.j.j.8.e t L ^ T.H.s [.|.}.i.",
"G.OXXX.X.X.X.XOX@X@X$X$X%X%X%XJ.R { } } i.w.#.w.@.r.t.w.( m h w , , - + * h h h l x m F ` &.r.y.p.j.j.j.m.L 8 9 0 ^ $X;.}.'.(.2.",
"7.J..X.XOX.X.XOXOX@X@X$X#X#X$X@X~ m B F C H H ( @.( Z Z x w , = & = - , w j w j l c F J +.r.y.t.k.k.m.c.J.j.;     p +X&X-X).^.*.",
"G.OX.XOX.XOXOXOXOX@X@X$XOXXX#XXXH.d j h r h z x V k h w w : & & = , w h r j j x l D H ` } e.e.g.a.l.l.z.m.m.6.1   K +X4X}./.D.=.",
"G..X.X.X.XOXOXOX@X@X#X@XOX.X X XI.Q @ = 1 4 1 2 - - - - = - X X = , , 3 5 j x C G J ` ` } e.d.u.a.l.d.x.k.n.m.4.z -.T.2X;X^.A.*.",
"G..XOXOXOXOX.X.XOX@X$X#XOX XI. XI.7.o   # + Y Y h q * * * , : * - 6 5 3 j x G G J J ` } e.t.t.u.d.a.k.z.z.z.z.h.c.+X+X+X-XD.C.*.",
"G.OXOX@XOX.XOXOX.X@X@X$XOXXXJ..X.XG.p     o 2.j.X.D h 4 q 4 w : q j j j V F F H J } } e.e.e.t.t.u.a.z.l.d.p.p.c.I.+X+XT.E.V.V.*.",
"G.OXXXOXOXOX.XOXJ..X.X#XOXXXH.H..XK.^       *.n.i.) b z j w j r h l x l F H J J { } #.e.e.e.r.t.t.d.z.k.s.p.p.J.I.I.+XT.Q B.C.=."
};
