/* XPM */
static char *a3c3001a1efc49f3ad45a6929061a2b2KgOB2j7trcb9r5oY[] = {
/* columns rows colors chars-per-pixel */
"64 64 79 1 ",
"  c #363634",
". c #3F3C3A",
"X c #413E3B",
"o c #45433E",
"O c #5C513D",
"+ c #464540",
"@ c #4F4C46",
"# c #4F4C48",
"$ c #514C47",
"% c #525044",
"& c #56534C",
"* c #5A564D",
"= c #5E584E",
"- c #5A5751",
"; c #5E5952",
": c #615B4E",
"> c #6D5F48",
", c #635D55",
"< c #6D604F",
"1 c #70614A",
"2 c #666056",
"3 c #6C6354",
"4 c #666258",
"5 c #6B655A",
"6 c #6E685C",
"7 c #746957",
"8 c #7D6F57",
"9 c #70675B",
"0 c #72695E",
"q c #7A6E5C",
"w c #6F6961",
"e c #746C61",
"r c #756D61",
"t c #766E63",
"y c #796F61",
"u c #786F62",
"i c #777061",
"p c #767062",
"a c #787061",
"s c #7A7062",
"d c #7D7162",
"f c #7B7167",
"g c #7D7064",
"h c #7C7065",
"j c #7E7265",
"k c #7C7166",
"l c #7C7167",
"z c #7C7367",
"x c #7E7467",
"c c #7F7A66",
"v c #7B7168",
"b c #7B7268",
"n c #7C7268",
"m c #7C7368",
"M c #7D7468",
"N c #7F7468",
"B c #7D7668",
"V c #7F7869",
"C c #807465",
"Z c #827464",
"A c #827465",
"S c #827466",
"D c #827767",
"F c #867767",
"G c #847867",
"H c #867867",
"J c #877867",
"K c #817468",
"L c #807668",
"P c #847668",
"I c #857768",
"U c #817869",
"Y c #837868",
"T c #857868",
"R c #877868",
"E c #897B6A",
"W c #8B836F",
"Q c #988F7B",
"! c #97907C",
/* pixels */
"HLnnAhaALIRRIILLZnnZZLLIILLLABnvvnLKnAHHPFFKKPKIIIIIFFITITBETHHH",
"Lt09999weewteeeew0wwwweeeeeewwee9w09tteteeeewweeeeeettt0tt0e0tjT",
"uAAAAZAAnIIILKnLZKSZKZKZILZZAjAAZZjLLnjVKKAKPZKKLLKnIIIIjAjALLTt",
"t:,,,,:,,,,,,,,,,,,,,,,,,,,,,,,,,,,,,,,,,,,,,,,,,,,,,4,,,,2,,,2t",
"u90t.@$@$@@@####$##$$$@$##$$$$$o$$$$#@$####$$#$$##@@@$$$$$$ott0Z",
"htAq&aqZpvmvnnnvyySuuuuSyuujuuZ5uddqddjvKytArAKrnnnvnnujadA,djtL",
"h0jj:ajunnvvvvvjyZyyZqZujZuZZZu3uduZaddhCyyyyAyPudjjvtZuFqZ,dhth",
"vtuZ*AaZannBvvhjZyZZuSKyduZuuZu3AqZuAavvyyAAAyySyjZtuZuZuZu3uuev",
"a0Aa=AddnnLLvvvdZZuAuAyKyZuyZuZ3qdddSuCKyvKvKrKrtvuvuZyZdZA,AA0u",
"Aqaq<addnLTBvjvdutjuAuyKZyZSuZu3ddAuuyyyyvStyvhvPKyvyuZyuut0qutL",
"ntZd1sdhnLTKnnjaZZZuujynyZFuZuZ3aAuZAFyZKtyPvvvvvvvvSuuSZqZ>yytZ",
"htsZ1sdhLUTBnnnBunvndtnnyytyZuZ3qqZuuAtuvhCrvvvvKvKyyZSuuZu>qutn",
"htut1ddhLULIBBLvvvvnvnvvnvtSZuZ,uAqjaAqZyAKtyKhvvKtvZuSPyyF,eueR",
"htaA<ddjnILTLUBvnvunvnKnnvSyuZZ,uuAjaquFAyyKhvhKyvvvvuyyZZZ>0SuR",
"BwjAOddvBHHHHTIUnvvnvnvvKyySSut3yuZuAZuuyyKyvvvKnvKvZvCyyZy:qyuF",
"Ltjv;dhhUTHHHTLnnvnnnnvnvPyyuSL3jZqZAuZqySrAhvvttnnvrKyyZyZ4yntI",
"Lthv;jhvBHTFHHUhvvvujvvvKvtSySF4yyZyuSuvZuAuhjAjvKvvvnnKuZZ,ZytK",
"Ltvv;vpvvHTEHHUnvmnndvvmySSyZyt3yZyZZuKZujuAuduaSyvnnnntZuF4uZuP",
"ntvh,hjvUFFITLTVBvVBvvmvvuLtuuZ5yZZyyuKujAujjahAKytnynvvuqZ,yntL",
"Ltdv=hjvAETHBLUAULcvvvmvnSuyjZy3yyyZyZvvZunjjnhvvnStvnnZZZu,nvtI",
"Kevj;AatHUHHLUTUUUBvvvBvnjtnjvh5ZyZyZunnjujvvvvjtvvvvvvuddj,nytP",
"vtvu;auLHTTHVVVnBnBvvpvnnunnjdd4rZyZuZynvvvvvvvavnnvvnvZdZj4yKtI",
"vtnZ:uAunVLBLTLKKvvnvvvvnnnjaAd5yyZyZunnvnvvjvnaKtKnvnnujdd3dven",
"vwju:ZuAvvnnTUVKvvvvvvvvnjuZuuh3yZyZtFtyvtjvvnnvynvnvtuZddd,ddtB",
"ZeuK:ZuZuZyyLLKnvBvvmvBvvvvduAu5yZQWSyuSvvvvvvnnvLnBvhdjhdt,AAth",
"vwZu*ZZuZuyKLLnnvvvvvmVBvvddqFZ3yy$,uZKyvvmvvvnnVUTnmvdjvdA,Attv",
"ZeuZ:yyZStKKvyvvvvjhvvLBzhhdAad5ZZZyyPtSvvvpvvvLTDLLvmvvvud3pvth",
"uwZu*yZqyKtyKvvnvvBahVvBhdddddd5yyyZtyyvmvvbvvmBHBTIBBnnvvj4nvtv",
"ZwyS-yyZSyeeZSynmvBvjBvmvdddddd3advjSuSyvmvbvBvnLTHTBLcLvvn4uvtj",
"Z0uZ*SZySyerS0Syvmvmnnmvhvddjad5da!DECtvvmmbhhvBvBVUVTLBnnn4jvev",
"ywSyS8SZyyryeyuuhmmvnvvmmmadadd4ud0,::,,=vmvvvvvhvVhIBLLvvnqvvtn",
"ntuS>ZuyyeeeyrZZdhvmLvvvdmjdddt,aaS9SZuumhvdvhvUBBvvLLKnnvy3tLtL",
"ZtAu1uAupdptapvhvvmvmhhvynjydut,aaahdddhvmvmpvmBvVVvUHBjBvv3qvpB",
"j0tAZAudaataajhhvBBmmvvjnjdddda,taaddddvhBmvmvvmBvvnUUFVVvh7tvpL",
"UtAu>8ddddpddajvvBvvvmvvnnddddj4ttahjadhhmvvvvvvnnvBcBUjncB<tnaU",
"jtuA>qddduadddvLhnBvmvvnKndddaa,qtaadAdahvvhmvvvLnnBVTUUvVn3pjuL",
"TtaA*dddaduaddndvcBnvjZLKnjudya2qisttudntdhvvmvmvvvvBnLnULL,jvpV",
"T9ua*aqnddtaddddvhnUBDBBVnjdddd2itatadjjddhvvvmvvvnUnLBvBBn5BvaU",
"jtdu*aajdatadddjdvjmBncLBVvdnyu4ttatuddujjpaphvmvvjBnvvLKvv4nnpB",
"u9uu*haddatdddpddvvBnLBBLTncBdj,iiutddautduddmmvvmAVnvBnvvv4vBaI",
"u9uu*tudjupaaatadhmBVDBULVVBnda,tiq0padppqpadjvvnBBvvvvdvju3nnjI",
"jedu*utdjppadddadmhhBBvVBUBKLaa,ttpappajatatpdvhvvUvnnjdjaj4nntF",
"veyu*aaddpaptaappjvBmcjmLULVjjt,tatpddadaaathdddanvjBnddndd3vKtE",
"ntdu*aaudapdaddutvjvvVvULUVUVat,t0iiddjddaapaaddhnvaHnjyddd,hLtR",
"jtai*tquuapaddppjjvvmBLnTVUTjdt40tppdddaadutudaddhdhLjdjddZ,nnaT",
"htas*utpBAjAHTLAATBTBETETTTTjdt,0ipdDHUALZZLBjjAAULUUBZZadt,ddaH",
"h60t*ttu#&*;-;*-*;,;,2;3224&Iha,pt0j%;;;;*;***-;*;,,;;=$Fyt,dnpH",
"v0tq*tuj2apaavdjajUjnTVLIIB5Tad2tipj4jjdjjdaapaapdvdjdj5Zdt;dueB",
"Bttq*0tH=66665665eweeeeetut,Fdd2autZ,w00006665666tt6t90;At9,aduj",
"d0tt*tpd2pdajdhjjuZvvIIZKLK5Idd4dquZ,udddjduatddddatdda4Aps,ddtj",
"d0it0eqL*5566666505w0teuttt;Fdj,uduF;05t00t5056099t0065-jpp5aBtV",
"t5pi>ttn2tiippajZuZjtnuLjna4IuA4ujuF4ZddddddaadduuuAddj3Zts3qapj",
"d5ti<apB&55556569e59etwe04e;Ljd4uddS,0t050066606959w995-jaA30vth",
"a5qt1t8d;tttadaauqAujajAyZj3Lud,ajdS4jhahdaddddduZAjdda2Aad<qntB",
"a6pt10ta&255665599w95ww0eee,Iuu,tddA,505005605559599955,Add30vtU",
"d5tt1ttd,tapapadtaajuAutvyv,Ltu,dddA4djduddjadjuuZuAjdA4Add3qvtL",
"a5tto0sj*45556655660t5ttwt0,Fuu,adjA,000tt5e4t0t650e005,Ldd*qhtA",
"a5t0&p0j&;;;,;;,,,454243343&Auu,adjA-55454,544,444,5444=AAd2djtU",
"a0a0&piiBjnjBjjLjAHTLIETFIIBauw,tdddATTTIIILIKIZLAZIEITLdjd2jutj",
"d5p0*t0pttttapappdpjjdtnjujuttw:0ttaadjLjnuujynjhjvjdjddapt2ZttT",
"d0pt&0wttptppapauhpdjdjuvZuu0t9;t5t0dddnBnnvnavhBvjhLnadaaa,ud0I",
"d6it*qttttwtaphpuuadjdyZZuuu0t0:0ee0tuddTLnvdjBTvvdvLhddaad,qdtF",
"s6ito=====-;;;=;;;;,;,,,,,,,:===*===,32,3,,32232,3,23,3,,3,$duwF",
"d5tt XX....+X+..Xo+ooooooooXXXX.XXXXoooooo+oooooooo+ooooooX.ZutF"
};
