/* XPM */
static char *fa1c01184118415ab6f6cfac523ca4fbUX8C4E0nZ5J50yMr[] = {
/* columns rows colors chars-per-pixel */
"64 64 5 1 ",
"  c #1C6E2D",
". c #487E58",
"X c #3B8D54",
"o c #54924A",
"O c #789E56",
/* pixels */
"  XXXX    XXXXXX o   XXX XXX XXX  X     OOXXX . XX XXX XX    XX ",
"XO      oXXX XXXXOOXXXX   XXXX      XXXX  XX ..   X XXX   XX  XX",
"X o X X. XX X XXX OXX  XX  XXXOOXX   XXX XX  . X X X  XX XXXX XX",
"XX. XX   X  XX  XX  XXXXX X    ..XXXX XXX      XXXX  O XXX XXX X",
"XXX O X XX . XX  o. XXX XXXXX o. XXX O  XXX XXX XXXX.o  X  XXX  ",
"     XXXXX .  XXXOOXXXX XXXXXX. XXXX OOX   X XX  XXX .XXXXXXX XX",
"XXXXX  XX oo. XXX  XXX      XX  XXX   OX X  XX  X  XX X XXX  XXX",
"  XXX XX  OoO  XXXXX  X .O.  X XX  XX  XXXX    XXX  XX XXXX .  X",
"X  XXX   X   o  XX  XXX  XXX. X   X X X XXXXooO XX XXX XXX oXXX ",
"XX   XXXXX X  OO    X XX XXX .    X XXXX XXX OO  X  XXXX  O.  XX",
"XXXo  XX XXXX oOoX    XXX XXX XXOXX  XXXX  XXX  XXX  X  .OOO X X",
"XXX XXXXX XXXX .oXXXXXXXX  XXX  XX XX XXX X XXX XXX .    XOOXXX ",
"  XXO   XX XXX   XXX XXX XX       XXX  X  XX XXX XXX. XXXX  XX  ",
"   oOXXXX    XX.XXXX X  . XXXXXX  XX  OXXXXXXXXX  XXX XXX XX   .",
" Oo  XX   XX  X XXX   XX X X XXX XX  X XXX  XXX  X     X XXX  ..",
"  XXXXX .O. . XXX  XXXXXXXX   XXX   X XXXX XX   XXOXXXX  XX O XX",
"XXXXXXX  XXX X   XXXXX  XXXXOo  XXXX  XXX    X X X  XXX XX  XXXX",
"XX    XX XXX X  XXXXX    XXX Ooo  XX XX  XXX XXXX X. XXX    XX X",
"XX  X X X XXXX X     ..XX  XX  XXX XX  XX.XXX XXXXX .  XXXXo XXX",
"X XX X X   XXX  .o XX  XX   XX XXX     XXX XXX XXX X... XX O  XX",
" X   XXXX       ..XXX XX  X XXX XXX.O      XX X  XX ...OO  ooXX ",
" XX X XXXX XXXXX  XX o    XXXXX  XXX  XX XX X XX  XXX  XXXX X  O",
"XXXX   XXX X XXX XX  X oOX XXX XO     X XXX  XX  X  XX XXX XX XX",
"X  XXX   XX   XXX   XX OoOXX  oO XXXXX  XX     X  X XXX XXXX  XX",
" XX   Oo  . ..  XXX XXX       Xo X XXX XX  X .oXXXXXXXX  XXX   X",
"XXX .OO XX X ..O XX XXX XXXXXXXo. X XXX   X  . XXX XXX XX       ",
"XX  OX  XX XX..O     XXX.XX XX  .  X  XXXXX X XXXX X     XXXXX  ",
"X    XXXX  XX .oOOoO  XXX X X XX     O  XX  X XXX    X X X XXX X",
"  XX XXX    XX ooOooO     XX XXX X  ....O X XXX  XX OXXXX X XXX ",
" X  XXXX .    XOoOO  XXXXO O XX XXXXX  XXXXX   X XXX  XXXXXX  XX",
"o . XXX OOOX X .Oo XXXXX OO XX   XXXXX XXX    XXXX X   XXX X o .",
"X..XX  X .OXXXX O X XXX O O.   oo X XXX XXX XX    X OXX  XX   X ",
"Xoo    XXoo XXXXO XX   .XX   ..O.o XXXX  XXX  OO XX  XX   X  XXX",
" O XXXo      XXX XXXXXX. X XX . XXXXXX .      .OXXX XX  XXXX XXX",
"X. XX O OOX X  XXO XXX .OX XXX  XXX   Oo XXXXX  XX X   XX XXX XX",
"XX . O XX OXXX  ..XXXX O. X XXXo XXX.OO.XX  XX XX    XXXXXXXX  X",
"    X XXX XXX   . XXX X..X X XX   XXXoOooXXXXXX     OOX  XXX XX ",
"XXXX  XX      X .XX  XX .XXXX XX X     O XXX  XXXXX  OXXXX  XXXX",
" XXX XX    XXX O.   XXX O XXXXXXXXXoO XXXXXX . O  XXX XXX oo X  ",
"X XXX   XX XXX  X. X XXX   XXX     ooXX XXX ...O. XXXXXXX OoOX X",
"X   XX  XXX XXXXX XX  XX X   XXOo X  XXXX   ....O  X XXX  .OX X ",
" XO  XXXXXX  XXX  XX XX XXXXX X  OXXXX   XXX .OO .  XX   X  XXXX",
"XX XXX XXX  X     O XXX XXX XXXXX XXX  ..XXX  XXX.Oo    X XX XXX",
"X  O X     XX XXXX  XX     XX XXXXXXX .O.  XX XXX .OO  XXX XX XX",
"XXXO.XXXX .X X XXX XX   oOXXXXXX XXX  ..X X XX XXXXOO XX  XX    ",
" XX  XXX  . XXX XXX   X o    XXXXX  XX .XXXX X  XXX O X  X   OX ",
" XXXXXXX . .   X  XXXX X  XXXX     XXX O XXXX        XXXXX ..O X",
"  X XXX   XX X O.O   XXXX XXX O.XXXXX .oO XXX . XXXXX XXX    XX ",
"OO XX   .XXXXXX O. X   XXX XXX OOX X X.O.   XXo   XXXXXXX XX X  ",
" OO  XX. XX XXXXo.XX  XXXX  XXX     XX . XXX Ooo   X XXX XX X X ",
"  O XX  XX   XXX OOXXXXXX XX     OOXXX  XXXX  Oo  O XX  XXXXXXXX",
"Xoo.. .    O   XX  XXX   O XXXXXX  XX XXXXXX  XXXOOO    X XX XXX",
"X  ... XX Oo    XXXXXX XX.O   XXX XX       XX XXX ..OoXX  XXX XX",
"XX  O XXX .oo  XX XXX XX X X   XXX   o X   XXX XXX .OOXX XXX X  ",
" XXX  XX  .oo   XXX  XXX XXXX O  XXX .oo X  XX  XXX     XX  . XX",
" XXX XX    XXXo    X XXX  XXXXo   XXX..OoXXXX o      OXXXX ..o  ",
"  XXX   XX XXX oO    XX XX XXX OX XXX .. XXX OO  XXXX  XX ...X X",
"X   XXX XXX XXXX.. XX   XX   XXO X XXXo.XXXX OOo  XXX XX  .. XXX",
"XX.O XXXXXX  XXX .   XX X  XX  OO  XXX  XXX X  X X XX    X  X XX",
"XX Oo X  X        .oXXX   XX XX OO  XXXXX  XX  XXXX  XX X XXXX X",
" XXoO.XXXX.O XXXXX  XX  XX  XXX  XXX XX  XX  XX XXXX.  XX  XX   ",
"X XO. XXX OO   XXX XX  XX .o .XX XXX     X XXXX  XXX  XX XX   X ",
"XXX .XXXX OO.   XXX   XX OO . XXX XXXX      XX XX  XX XXXXX  .X ",
" XXX XXX   .X X   XXXXXX XXXOXXXX  XXX OOO XX   XXX XX  XX OOO X"
};
