/* XPM */
static char *accd97a17b374827bbf6ab8e28d8d01dJosrALK6AwrP1M8u[] = {
/* columns rows colors chars-per-pixel */
"64 64 46 1 ",
"  c #727272",
". c #737373",
"X c #7E7E7E",
"o c #808080",
"O c #818181",
"+ c #838383",
"@ c #848484",
"# c #858585",
"$ c #868686",
"% c #878787",
"& c #888888",
"* c #898989",
"= c #8A8A8A",
"- c #8B8B8B",
"; c #8C8C8C",
": c #8D8D8D",
"> c #8E8E8E",
", c #8F8F8F",
"< c #909090",
"1 c #919191",
"2 c #929292",
"3 c #939393",
"4 c #949494",
"5 c #959595",
"6 c #969696",
"7 c #979797",
"8 c #989898",
"9 c #999999",
"0 c #9A9A9A",
"q c #9B9B9B",
"w c #9C9C9C",
"e c #9D9D9D",
"r c #9E9E9E",
"t c #9F9F9F",
"y c #A0A0A0",
"u c #A1A1A1",
"i c #A2A2A2",
"p c #A3A3A3",
"a c #A4A4A4",
"s c #A5A5A5",
"d c #A6A6A6",
"f c #A7A7A7",
"g c #A8A8A8",
"h c #A9A9A9",
"j c #AAAAAA",
"k c #ABABAB",
/* pixels */
"hhhkhhkhhhhhhhhhhhdhddhhhhhhhhhhhhkkhhhhhhhkhkhhhhkhhhkhhhkhhhkk",
"hkkkkkhkkhkkhkkhkkhhhhkkhkkkkkkkkkkkhkhhkkkkkkkkkkkkkkkkkkkkkkkk",
"kkkkkkkkkkkkkkkkkkkkhkkkkkkkkkkkkkkkkkkkkkhkkkkkkkkkkkkkkkkkkkkk",
"kkkkkkkkkkkkkkkkkkkkkkkkkkkkkkkkkkkkkkkkkkhkkkkkkkkkkkkkkkkkkkkk",
"kkkkkkkkkkkkkkkkkkkkkkkkkkkkkkkkkkkkkkkkkkkkkkkkkkkkkkkkkkkkkkkk",
"kkkkkkkkkkkkkkkkkkkkkkkkkkkkkkkkkkkkkkkkkkkkkkkkkkkkkkkkkkkkkkkk",
"kkkkkkkkkkkkkkkkkkkkkkkkkkkkkkkkkkkkkkkkkkkkkkkkkkkkkkkkkkkkkkkk",
"kkkkkkkkkkkkkkkkkkkkkkkkkkkkkkkkkkkkkkkkkkkkkkkkkkkkkkkkkkkkkkkk",
"kkkkkkkkkkkkkkkkkkkkkkkkkkkkkkkkkkkkkkkkkkkkkkkkkkkkkkkkkkkkkkkk",
"kkkkkkkkkkkkkkkkkkkkkkkkkkkkkkkkkkkkkkkkkkkkkkkkkkkkkkkkkkkkkkkk",
"kkkkkkkkkkkkkkkkkkkkkkkkkkkkkkkkkkkkkkkkkkkkkkkkkkkkkkkkkkkkkkkk",
"kkkkkkkkkkkkkkkkkkkkkkkkkkkkkkkkkkkkkkkkkkkkkkkkkkkkkkkkkkkkkkkk",
"kkkkkkkkkkkkkkkkkkkkkkkkkkkkkkkkkkkkkkkkkkkkkkkkkkkkkkkkkkkkkkkk",
"kkkkkkkkkkkkkkkkkkkkkkkkkkkkkkkkkkkkkkkkkkkkkkkkkkkkkkkkkkkkkkkk",
"kkkkkkkkkkkkkkkkkkkkkkkkkkkkkkkkkkkkkkkkkkkkkkkkkkkkkkkkkkkkkkkk",
"kkkkkkkkkkkkkkkkkkkkkkkkkkkkkkkkkkkkkkkkkkkkkkkkkkkkkkkkkkkkkkkk",
"kkkkkkkkkkkkkkkkkkkkkkkkkkkkkkkkkkkkkkkkkkkkkkkkkkkkkkkkkkkkkkkk",
"kkkkkkkkkkkkkkkkkkkkkkkkkkkkkkkkkkkkkkkkkkkkkkkkkkkkkkkkkkkkkkkk",
"kkkkkkkkkkkkkkkkkkkkkkkkkkkkkkkkkkkkkkkkkkkkkkkkkkkkkkkkkkkkkkkk",
"kkkkkkkkkkkkkkkkkkkkkkkkkkkkkkkkkkkkkkkkkkkkkkkkkkkkkkkkkkkkkkkk",
"kkkkkkkkkkkkkkkkkkkhkkkkkkkkkkkkkkkkkkkkkkkkkkkkkkkkkkkkkkkkkkkk",
"kkkkkkkkkkkkkkkkkkkhkkkkkkkkkkkkkkkkkkkkkkkkkkkkkkkkkkkkkkkkkkkk",
"kkkkkkkkkkkkkkkkhhhhhhhhkkkkkkkkkkkkkkkkkkkkkkkkkkkkkkkkkkkkkkkk",
"kkkkkhhkkkkkkkhkhhhhhhhhkkkkkkkkkkkkkkkhkhkkhkkhkkkkkkkkkkkkkkkk",
"kkkkhhkkkkkkhhhhhkkkkkkkhhkkhhhkkkkhhhkkhkkhkkhhkkhhkkkkkkhkkkkk",
"hhhkhhhkhkkkhhhhhhkhhhhhhhkkddhhkkhhhhhhhhhhhhhhhhkhkhhhhkhhhhhh",
"3366600eeeyeeeyeyyyyeyee00ee0000yyeeeeyyeeee00660000006663363333",
"::*:333366000000eeeeee0000006600ee0eeeee0006666633333::::******:",
"hdyeee000eeee0eeeeeyeeeeyhhde0eeeeyyyyyyeeydhhhhe06600yhhhhhhhhh",
"hhhhhhyeeeyyyeyeyyeyyyeykkkkyeyyyyyyyyyyyykkkkkkhy00yhhhhkhkkkhh",
"kkhkkkhdydyyhkkdkkdddydkkkkkhhdyeykkdyeykkkkkkkkhhe0hkkkkkkkkkkk",
"kkkkkkkkkkkkkkkkkkkkhhkkkkkkhkkkdkkhhdeekkkkkkkkkhdekkkhkkkkkhkk",
"hkkkkkkkkkkkkkkkkkkkkkkkkkkkkkkkhhkkkkyyhkkkkkkkkkhhkkkkkkkkkkkh",
"hhhkhkkkkkkkkkkkkkkkkkkkkkkkkkkkkkkkkkyhkkkkkkkkkkhdkkkkkhhkhhhh",
"ddkhhhhkkkkkkkkkkkkkkkkkkkkkkkkkkkkkkkdhkkkkkkhhkkhhkkkhkkhhhhhd",
"ddkhhdhhkkkkkkkkkkkkkkkkkkkkkkkkkkkkkkkhkkkkhhkkhhkkkkkhhhhhhddd",
"hhkkkhhhhkkkkkkkkkkkkkkkkkkkkkkkkkkkkkhhkkkhhhkkhhhhhhhhhdddddhh",
"kkkkkkhhhkhkkkkkkkkkkkkkkkkkkkkkkkkkkkyhkhhhhhkkhhhhhhdhhhddydhh",
"kkkkkkddhhhkkkkkkkkkkkkkkkkkkkkkkkkkkkkkhhhdhhkkhyhdhhddhkhdddkk",
"kkkkkhdddhhhhkkkkkkkkkkkkkkkkkkkkkkkkkhkhddhkkkkddddddydkkhdhdkk",
"kkkkkkhddddhhhhhkkkhkhkhhhkkkkhhhhhhhhhhhdddkkkkhdddddddkhhdhhhk",
"kkkkkkhdddddhhhhhhhhhkhkhhhhhhhhhhhhhhdddddhkkkkkhydyydkkkhdkkkk",
"kkkkkkhhdkhhdhhhhhhhhhhhhhhhhhhhhhhhkkdyyydhkkkkkkyyydkkkkkkkkkk",
"kkkkkkhdhkhhddddhhhdhhhhhdhhhhhhddhhhhhdyykkkkkkkhyedkkkkkkkkkkk",
"kkkkkkhdkkkhddydkkhddddddddddhddydhkkkkhyekkkkkkkkeehkkkkkkkkkkk",
"kkkkkkkykkkhyyydkhdyddyddhdddydyydkkkkkhy0hkkkkkkh00kkkkkkkkkkkk",
"kkkkkkhykkkkhyydkhddkhyyhkhhyeydkkkkkkkkkdhkkkkkkke0hkkkkkkkkkkk",
"kkkkkhhyhkkkhdykkkhhkhdyhkkhdydkkkkkkkkkkkhkkkkkkhedhkkkkkkkkkkk",
"kkkkkkkkkkkkkkhhkkkkkkyyhkkkhkkkkkkkkkkkkkkkkkkkkhyhhkkkkkkkkkkk",
"kkkkkkkkkkkkkkkkkkkkkkhdhkkkhkkkkkkkkkkkkkkkkkkkkkyhkkkkkkkkkkkk",
"kkkkkkkkkkkkkkkkkkkkkkkkkkkkkkkkkkkkkkkkkkkkkkkkkkhkkkkkkkkkkkkk",
"kkkkkkkkkkkkkkkkkkkkkkkkkkkkkkkkkkkkkkkkkkkkkkkkkkkkkkkkkkkkkkkk",
"kkkkkkkkkkkkkkkkkkkkkkkkkkkkkkkkkkkkkkkkkkkkkkkkkkkkkkkkkkkkkkkk",
"kkkkkkkkkkkkkkkkkkkkkkkkkkkkkkkkkkkkkkkkkkkkkkkkkkkkkkkkkkkkkkkk",
"kkkkkkkkkkkkkkkkkkkkkkkkkkkkkkkkkkkkykkkkkkkkkkkkkkkkkkkkkkkkkkk",
"kkkkkkkkkkkkkkkkkkkkkkkkkkkkkkkkkkkkkkyhhkkkkkkkkkkkkkkkkkkkkkkk",
"kkkkkkkkkkkkkkkkkkkkkkkkkkkkkkkkkkkkkh6:0hhkkkkkkkkkkkkkkkkkkkkk",
"kkkkkkkkkkkkkkkkkkkkkkkkkkkkkkkkkkkkkh6+0hhkkkkkkkkkkkkkkkkkkkkk",
"kkkkkkkkkkkkkkkkkkkkkkkkkkkkkkkkkhkhkkhdhkkhkkkkkkkkkkkykkkkkkkk",
"kkkkkkkkkkkkkkkkkkkkkkkkkkkkkkkhddkhkkkhkkkhkkkkkkkkkkhhkkkkkkkk",
"kkkkhhkkkkhhy0eeeeykhhkhkkkkhyyy0eyeyyyyyeyeeykkkkkkkkh0kkkhkkkk",
"hhkhhdhhhkhy633636eyddyekhhky006000eeeee000636yyykhkhd03hhhdyhkk",
"3yddy3:33663  *::306333366063::*:300006633:*X*:3:6333:..3::3$3dd",
"X:363++****::36666603::*3333::33360ee006663333:****+*:::****$*66"
};
