/* XPM */
static char *d9deffd4122e4e38aca73f74e4bf1261hOblZpEN2SuZ5TKt[] = {
/* columns rows colors chars-per-pixel */
"64 64 256 2 ",
"   c #000000",
".  c #010101",
"X  c #020202",
"o  c #030303",
"O  c #040404",
"+  c #050505",
"@  c #060606",
"#  c #070707",
"$  c #080808",
"%  c #090909",
"&  c #0A0A0A",
"*  c #0B0B0B",
"=  c #0C0C0C",
"-  c #0D0D0D",
";  c #0E0E0E",
":  c #0F0F0F",
">  c #101010",
",  c #111111",
"<  c #121212",
"1  c #131313",
"2  c #141414",
"3  c #151515",
"4  c #161616",
"5  c #171717",
"6  c #181818",
"7  c #191919",
"8  c #1A1A1A",
"9  c #1B1B1B",
"0  c #1C1C1C",
"q  c #1D1D1D",
"w  c #1E1E1E",
"e  c #1F1F1F",
"r  c #202020",
"t  c #212121",
"y  c #222222",
"u  c #232323",
"i  c #242424",
"p  c #252525",
"a  c #262626",
"s  c #272727",
"d  c #282828",
"f  c #292929",
"g  c #2A2A2A",
"h  c #2B2B2B",
"j  c #2C2C2C",
"k  c #2D2D2D",
"l  c #2E2E2E",
"z  c #2F2F2F",
"x  c #303030",
"c  c #313131",
"v  c #323232",
"b  c #333333",
"n  c #343434",
"m  c #353535",
"M  c #363636",
"N  c #373737",
"B  c #383838",
"V  c #393939",
"C  c #3A3A3A",
"Z  c #3B3B3B",
"A  c #3C3C3C",
"S  c #3D3D3D",
"D  c #3E3E3E",
"F  c #3F3F3F",
"G  c #404040",
"H  c #414141",
"J  c #424242",
"K  c #434343",
"L  c #444444",
"P  c #454545",
"I  c #464646",
"U  c #474747",
"Y  c #484848",
"T  c #494949",
"R  c #4A4A4A",
"E  c #4B4B4B",
"W  c #4C4C4C",
"Q  c #4D4D4D",
"!  c #4E4E4E",
"~  c #4F4F4F",
"^  c #505050",
"/  c #515151",
"(  c #525252",
")  c #535353",
"_  c #545454",
"`  c #555555",
"'  c #565656",
"]  c #575757",
"[  c #585858",
"{  c #595959",
"}  c #5A5A5A",
"|  c #5B5B5B",
" . c #5C5C5C",
".. c #5D5D5D",
"X. c #5E5E5E",
"o. c #5F5F5F",
"O. c #606060",
"+. c #616161",
"@. c #626262",
"#. c #636363",
"$. c #646464",
"%. c #656565",
"&. c #666666",
"*. c #676767",
"=. c #686868",
"-. c #696969",
";. c #6A6A6A",
":. c #6B6B6B",
">. c #6C6C6C",
",. c #6D6D6D",
"<. c #6E6E6E",
"1. c #6F6F6F",
"2. c #707070",
"3. c #717171",
"4. c #727272",
"5. c #737373",
"6. c #747474",
"7. c #757575",
"8. c #767676",
"9. c #777777",
"0. c #787878",
"q. c #797979",
"w. c #7A7A7A",
"e. c #7B7B7B",
"r. c #7C7C7C",
"t. c #7D7D7D",
"y. c #7E7E7E",
"u. c #7F7F7F",
"i. c #808080",
"p. c #818181",
"a. c #828282",
"s. c #838383",
"d. c #848484",
"f. c #858585",
"g. c #868686",
"h. c #878787",
"j. c #888888",
"k. c #898989",
"l. c #8A8A8A",
"z. c #8B8B8B",
"x. c #8C8C8C",
"c. c #8D8D8D",
"v. c #8E8E8E",
"b. c #8F8F8F",
"n. c #909090",
"m. c #919191",
"M. c #929292",
"N. c #939393",
"B. c #949494",
"V. c #959595",
"C. c #969696",
"Z. c #979797",
"A. c #989898",
"S. c #999999",
"D. c #9A9A9A",
"F. c #9B9B9B",
"G. c #9C9C9C",
"H. c #9D9D9D",
"J. c #9E9E9E",
"K. c #9F9F9F",
"L. c #A0A0A0",
"P. c #A1A1A1",
"I. c #A2A2A2",
"U. c #A3A3A3",
"Y. c #A4A4A4",
"T. c #A5A5A5",
"R. c #A6A6A6",
"E. c #A7A7A7",
"W. c #A8A8A8",
"Q. c #A9A9A9",
"!. c #AAAAAA",
"~. c #ABABAB",
"^. c #ACACAC",
"/. c #ADADAD",
"(. c #AEAEAE",
"). c #AFAFAF",
"_. c #B0B0B0",
"`. c #B1B1B1",
"'. c #B2B2B2",
"]. c #B3B3B3",
"[. c #B4B4B4",
"{. c #B5B5B5",
"}. c #B6B6B6",
"|. c #B7B7B7",
" X c #B8B8B8",
".X c #B9B9B9",
"XX c #BABABA",
"oX c #BBBBBB",
"OX c #BCBCBC",
"+X c #BDBDBD",
"@X c #BEBEBE",
"#X c #BFBFBF",
"$X c #C0C0C0",
"%X c #C1C1C1",
"&X c #C2C2C2",
"*X c #C3C3C3",
"=X c #C4C4C4",
"-X c #C5C5C5",
";X c #C6C6C6",
":X c #C7C7C7",
">X c #C8C8C8",
",X c #C9C9C9",
"<X c #CACACA",
"1X c #CBCBCB",
"2X c #CCCCCC",
"3X c #CDCDCD",
"4X c #CECECE",
"5X c #CFCFCF",
"6X c #D0D0D0",
"7X c #D1D1D1",
"8X c #D2D2D2",
"9X c #D3D3D3",
"0X c #D4D4D4",
"qX c #D5D5D5",
"wX c #D6D6D6",
"eX c #D7D7D7",
"rX c #D8D8D8",
"tX c #D9D9D9",
"yX c #DADADA",
"uX c #DBDBDB",
"iX c #DCDCDC",
"pX c #DDDDDD",
"aX c #DEDEDE",
"sX c #DFDFDF",
"dX c #E0E0E0",
"fX c #E1E1E1",
"gX c #E2E2E2",
"hX c #E3E3E3",
"jX c #E4E4E4",
"kX c #E5E5E5",
"lX c #E6E6E6",
"zX c #E7E7E7",
"xX c #E8E8E8",
"cX c #E9E9E9",
"vX c #EAEAEA",
"bX c #EBEBEB",
"nX c #ECECEC",
"mX c #EDEDED",
"MX c #EEEEEE",
"NX c #EFEFEF",
"BX c #F0F0F0",
"VX c #F1F1F1",
"CX c #F2F2F2",
"ZX c #F3F3F3",
"AX c #F4F4F4",
"SX c #F5F5F5",
"DX c #F6F6F6",
"FX c #F7F7F7",
"GX c #F8F8F8",
"HX c #F9F9F9",
"JX c #FAFAFA",
"KX c #FBFBFB",
"LX c #FCFCFC",
"PX c #FDFDFD",
"IX c #FEFEFE",
"UX c #FFFFFF",
/* pixels */
"uXuXuXuXuX0X2X:XW.K.K.A.C.m.c.f.s.t.s.s.s.f.C.A.K.K.K.K.A.C.C.m.m.c.c.k.t.9.9.9.t.f.m.}.@X@X.XU.U.@X*X/.:X9X9X9X0X0XuXuX0XuXuXiX",
"VXVXVXVXNXcX2XgXuXuX0X0X9X9X<XW.U.K.K.K.U.W.<X9X9X0X0X0X0X0X9X9X9X2X2X:XU.C.A.A.Y.:X<X0XiXgXiXuXiXgXgXgXcXNXNXNXVXVXVXSXVXSXVXVX",
"VXVXVXNXVXNXcXcXlXlXlXgXgXgXgXuXuX0X0X0X0XuXiXgXgXlXlXlXlXgXgXgXgXgXiXiX9X9X9X0X0X0X@XuXgXlXlXcXlXlXlXcXNXNXVXVXSXVXSXVXVXVXVXVX",
"SXVXVXVXVXVXNXNXcXcXcXcXcXcXlXlXlXcXlXlXlXlXlXlXlXcXcXcXcXcXNXcXcXcXlXlXlXgXlXlXlXlXiXgXlXcXNXcXNXcXNXNXVXVXVXVXVXSXSXVXSXSXSXSX",
"SXSXSXSXVXVXVXVXNXNXcXNXcXNXcXcXcXcXcXcXcXcXcXNXNXNXVXNXNXNXNXNXNXNXcXNXcXcXcXcXNXcXcXcXNXNXNXNXNXNXVXVXVXVXSXSXSXSXSXGXSXSXSXGX",
"SXGXGXGXSXSXSXSXVXVXVXVXVXVXNXVXNXNXNXNXVXNXNXVXVXVXVXSXSXVXSXVXVXVXVXVXNXNXNXNXVXVXVXVXVXVXVXSXVXVXSXSXSXSXGXGXGXGXGXGXGXGXGXGX",
"GXGXGXGXGXGXGXSXSXSXSXSXSXSXSXSXSXSXVXSXVXSXSXSXSXSXGXSXSXGXSXGXSXSXSXSXSXSXSXSXSXSXSXSXSXSXSXSXSXGXGXGXGXGXGXGXGXPXGXGXPXGXGXPX",
"PXPXGXGXGXGXGXGXGXGXGXSXGXSXGXSXSXGXGXGXSXGXGXGXGXGXGXPXGXPXPXGXGXGXPXGXGXGXGXGXGXGXGXGXGXGXGXGXGXGXGXGXPXGXPXPXPXPXPXPXPXPXGXPX",
"GXPXGXPXGXPXGXGXGXGXGXGXGXGXGXGXGXGXGXGXGXGXGXGXGXPXPXPXGXPXPXPXPXPXGXPXGXPXGXGXPXGXGXPXGXPXGXPXGXPXGXPXPXPXPXPXPXPXPXPXPXPXPXPX",
"PXPXPXGXPXGXPXPXPXGXPXGXGXPXPXGXPXGXGXPXGXPXPXGXPXGXPXPXPXPXPXPXPXPXPXPXPXPXPXPXGXPXGXPXGXPXPXGXPXGXPXGXPXPXPXPXPXPXPXPXPXPXPXPX",
"PXPXPXPXPXGXPXGXGXGXGXGXPXGXPXGXPXGXGXPXPXPXGXPXPXPXPXPXPXPXPXPXPXPXPXPXPXPXPXGXPXPXPXPXPXGXPXPXPXGXPXPXPXPXPXPXPXPXPXPXPXPXPXPX",
"PXPXPXPXGXPXGXPXPXPXPXPXPXPXGXPXPXGXPXPXPXGXPXPXPXPXPXPXPXPXPXPXPXPXPXPXPXPXPXPXPXPXGXPXPXPXGXPXPXPXPXPXPXPXPXPXPXPXPXPXPXPXPXPX",
"PXPXGXPXPXGXPXGXPXGXGXPXGXPXGXPXGXPXGXGXGXPXPXGXGXGXPXPXPXPXPXPXPXPXPXPXPXPXPXPXPXGXPXGXPXGXPXGXPXGXPXPXPXPXPXPXPXPXPXPXPXPXPXPX",
"PXPXGXPXPXGXGXPXGXPXGXPXPXGXPXGXPXGXGXPXPXGXGXPXPXPXPXPXPXPXPXPXPXPXPXPXPXPXPXPXGXPXPXGXGXPXGXPXGXPXPXPXPXPXPXPXPXPXPXPXPXPXPXPX",
"PXPXPXGXPXGXGXPXPXGXPXGXGXPXGXGXGXGXGXGXGXGXPXGXGXPXPXPXPXPXPXPXPXPXPXPXPXPXPXPXPXGXPXPXPXGXPXPXPXGXGXPXPXPXPXPXPXPXPXPXPXPXPXPX",
"PXPXGXPXGXPXGXGXPXGXGXGXPXGXPXGXGXGXGXGXSXGXGXGXGXGXGXPXPXPXPXPXPXPXPXPXPXPXPXPXPXGXGXGXGXGXGXGXGXPXGXPXPXPXPXPXPXPXPXPXPXPXPXPX",
"GXPXPXPXGXGXPXGXGXGXPXGXGXPXGXGXGXGXSXSXGXGXGXGXGXGXPXPXPXPXPXPXPXPXPXPXPXPXPXPXPXGXGXGXGXGXGXGXGXPXGXPXPXPXPXPXPXPXPXPXPXPXPXPX",
"PXGXGXGXGXGXGXGXGXGXGXGXGXGXSXSXSXSXSXVXVXVXVXSXSXGXGXGXGXPXPXPXPXPXPXPXPXGXGXGXGXGXSXSXGXSXGXGXGXGXGXGXGXPXPXPXPXPXPXPXPXPXPXPX",
"GXGXSXSXSXSXSXSXSXSXSXSXSXVXVXVXNXNXcXcXcXcXNXNXVXVXSXSXGXGXGXGXGXGXGXGXGXSXSXSXVXSXVXVXVXSXVXVXSXSXGXGXGXGXGXGXGXGXPXGXGXGXGXGX",
"SXVXSXVXVXVXVXVXVXVXVXNXNXNXNXcXlXlXlXgXlXlXlXlXcXNXNXVXSXVXSXSXSXSXSXVXSXVXVXNXNXNXNXcXNXNXNXVXVXVXVXVXSXSXSXSXGXGXSXSXGXSXSXSX",
"VXNXNXNXNXNXcXNXNXcXNXcXcXcXlXgXgXgXiXiXiXiXgXgXlXcXcXNXNXNXVXNXVXNXNXNXNXcXcXcXlXlXlXlXcXcXcXcXNXcXNXNXNXNXVXVXVXVXVXSXVXVXVXVX",
"cXlXlXlXlXgXgXgXgXlXgXgXgXgXiXuX2X<X<X<X<X:X<X2XuXiXgXgXgXlXlXlXlXlXlXgXlXlXgXgXiXuXuXuXiXiXiXgXgXlXgXlXlXlXcXcXcXNXcXcXNXcXcXcX",
"iXuXiXuXuX0X2X9X0X0X0X0X0X9X:X.XC.c.k.k.k.k.c.C.*X9X0X0XuXuXuX0XuX0X0XuXuX0X0X<X:X*X*X:X<X2X9X2XuXuX0XuXuXuXiXiXiXgXiXiXgXiXiXiX",
"9X2X2X2X2X:XW.@X:X<X<X:X@X].m.s.9.4.4.4.4.4.4.w.c.].:X:X@X.X@X*X:X:X:X@X@X.X}.C.c.c.k.c.C.].}.U..X:X<X2X<X2X2X9X9X9X9X9X9X9X9X9X",
"*X*X*X*X@X@X.X.X.X.X}.Y.t.4.:.:.*.@.@.@.*.@.@.*.:.t.Y.Y.t.9.w.K.].].U.t.9.4.4.<.<.<.<.4.<.w.C.t.s.Y.}.@X@X@X*X*X*X*X:X:X:X:X:X*X",
"U.U.U.K.K.U.K.K.K.C.c.:.] ~ ~ ~ ~ ~ ~ ~ Y ~ ~ ~ ~ [ t.:./ ~ ] @.k.k.*.] ~ ~ ~ / / / / / / ] X.X.X.:.m.K.K.K.K.U.U.U.Y.Y.Y.Y.Y.U.",
"S S C C C C C N x N x i q q 9 2 2 9 2 2 2 2 2 9 9 q r r q 9 9 q h i r q 9 9 9 9 9 q q q q q r r i h x N N C C S C S S S S S S S ",
"k k i i i r q 9 9 2 2 1 - * * * * + + + + + + + 1 2 2 1 - * - * - - - - * + + * * - 1 1 9 9 q q 2 2 2 9 q q r h k k k x x x k k ",
"X.] N k k h r 9 2 2 - - - * + + o o o o o o o + 9 C S r - * * * * * * + o o + + * - 9 i J ~ Y I r 2 9 9 q h x / [ X.X.X.@.X.X.X.",
"*.@.] / / Y i 9 1 1 - * 1 - * * * * o o o o o 1 C I Y C 9 - * * + + - - o o o + 1 q C I / ] [ / S r 1 2 h Y / X.@.*.*.*.:.*.:.*.",
"@.X.X.[ ] / I i 9 2 2 9 N C x 9 x k 1 * + * 1 x J I I I S N 2 1 * 1 x k - o o * N J Y ~ / / ] ~ Y S 9 9 J / ] [ [ @.@.@.@.@.@.@.",
"@.@.X.X.[ [ / Y J S S S J I J S J J N x x x x S J I Y Y I J C x 9 k J S k - o 1 J ~ ~ / / ] / / ~ Y C i ~ ] [ [ [ X.X.X.@.@.@.@.",
"*.@.@.@.X.X.[ ] / / ~ ~ ~ ~ Y Y Y I I J I J J I Y Y Y ~ ~ Y Y Y I I Y Y I S 2 r Y ] / ] ] ] ] ] / ~ Y I ] [ [ [ X.@.X.@.@.@.@.*.",
"*.:.:.:.*.@.@.X.X.[ ] ] / / / ~ ~ ~ ~ ~ ~ Y ~ ~ / ~ / / / / ] / / / / / / Y i J ] [ [ X.[ [ [ [ ] ] / S [ [ X.X.@.@.*.@.*.*.*.*.",
":.4.w.w.:.*.*.*.*.X.X.[ [ [ ] ] ] / ] / / / / / / ] ] / ] ] ] [ [ [ ] [ [ / N ~ [ @.X.@.@.X.@.X.X.[ [ [ X.@.@.@.*.*.:.:.:.:.:.:.",
"w.s.W.Y.s.4.<.<.:.*.@.@.@.X.X.[ [ [ [ ] ] ] ] ] ] ] [ [ [ [ [ X.X.X.X.[ X.[ ] X.@.*.*.*.:.:.<.:.@.@.@.*.@.*.*.*.:.:.<.4.4.4.9.w.",
"/.K.@X@X/.c.w.4.<.:.*.*.@.@.X.X.@.X.X.[ [ X.[ [ [ [ X.X.X.X.X.X.X.@.@.@.@.@.[ @.*.:.:.<.4.w.K.f.<.*.@.*.*.:.:.:.<.4.9.9.9.w.f.W.",
"<X:X2X<X:X].f.w.4.4.:.*.*.*.*.@.@.@.@.@.X.X.X.X.X.X.X.@.@.@.@.*.*.*.*.*.:.*.~ *.<.<.4.9.w.k.}.W.9.:.:.:.:.<.<.4.s.s.t.s.s.s.C.*X",
"2X9X0X9X2X*Xk.t.9.9.4.:.:.*.*.*.*.@.@.@.@.X.@.X.@.@.@.@.@.*.*.*.:.:.<.<.<.<.<.4.9.9.w.t.m.}.:X}.w.<.<.4.4.4.4.s./.}.m.k.c.C.*X2X",
"uXuXuX0X0X:Xm.s.t.w.4.4.<.:.:.:.*.*.*.*.@.@.@.@.@.@.@.@.*.*.:.:.<.<.4.4.4.9.w.w.w.w.t.k..X<X2X@Xk.9.9.w.w.w.w.k.*X2X.XK.}.Y.2XuX",
"iXiXuXuXuX<XK.k.f.w.9.4.4.<.:.:.:.*.*.*.*.@.@.@.@.@.*.*.*.*.:.<.<.4.4.4.9.w.t.t.s.s.f.C.:X9X9X<X].k.t.s.s.s.s.C.<X9X:XW.<X}.uXiX",
"lXlXgXiXuX9X@XC.k.f.t.w.9.4.<.<.:.:.:.:.*.*.*.*.*.*.*.:.:.:.<.4.9.9.w.w.f.f.s.f.f.f.m..X9X0X0X9X*XA.k.f.k.k.A.@X9XuX9X.XuXiXgXlX",
"cXcXlXgXgXuX<XK.A./.c.t.w.9.4.4.<.4.<.<.:.:.:.:.:.:.<.<.<.<.4.9.w.t.s.c./.A.c.k.k.c.U.<XuXuXuXuX9X@Xm.c.c.U.*X0XiXgXgXgXlXlXcXcX",
"NXcXcXlXgXiX2XY.W.*X}.c.t.w.9.9.w.t.9.4.4.4.4.<.<.4.4.4.4.9.w.w.t.f.c.}.:X*XU.A.m.A.:X0XiXiXiXiXuX<XC.m.U.:XuXgXgXcXcXNXNXNXNXNX",
"VXVXcXcXlXgX9X/.2X0X:XC.f.t.w.t.m.W.f.w.9.9.4.9.9.9.9.9.9.w.t.t.s.k.K.<X0XuX0X2XK.K.9XiXgXgXgXiXuX2XA.K.2XgXlXlXcXcXNXVXVXVXVXVX",
"VXVXVXNXcXgX9X}.uXgX9XY.c.s.s.k.@X@Xc.t.f.s.t.w.s.k.f.s.w.t.s.k.m.U.:XuXiXgXcXiX/.Y.0XgXlXlXlXgXiX9XU.Y.iXNXcXcXNXVXVXSXSXSXSXVX",
"SXSXVXVXNXlX0X.XgXlXgX2XK.c.k.C.:X<XC.C.].C.f.f.A..X.XA.f.s.f.A.:X9XiXiXgXlXcXcX9X.XiXcXcXlXlXlXlX0XY.].gXNXNXVXVXVXSXSXGXGXGXSX",
"GXGXSXVXNXNXiX:XlXcXlXgX<XY.K.@X0X9X/.@X2X*XC.m.*X9X9X:XA.C.K.*XuXgXlXlXcXcXNXcXlXgXcXcXcXNXcXcXlXiX].9XNXVXVXSXSXSXGXGXGXGXGXGX",
"GXGXGXGXSXVXVXcXVXVXNXcXgX0X.X0XgXgXuXiXiX0XY.U.0XgXgXiX2X9X0XgXlXlXcXcXcXNXNXNXcXNXcXNXNXNXNXNXNXgX.XiXNXVXSXSXGXGXGXGXGXGXGXPX",
"GXGXGXGXSXSXSXSXSXVXVXVXNXNXlXlXcXcXcXcXlXgX2X.XgXcXcXlX<XgXcXNXcXNXNXNXNXNXNXVXVXNXNXVXVXVXNXNXNXlX<XgXVXSXSXSXGXGXPXGXPXPXPXGX",
"PXGXGXGXGXGXGXSXSXSXVXVXVXVXNXNXNXNXNXcXcXcXlXgXNXNXVXNXcXNXNXNXNXVXNXNXNXNXNXNXNXVXNXNXVXVXVXNXNXNXcXNXVXSXSXGXGXGXGXPXGXPXGXPX",
"GXGXGXGXGXGXSXGXSXSXSXVXVXVXVXVXVXVXNXNXNXcXNXNXNXVXVXVXVXVXNXVXVXNXNXNXNXcXcXNXNXNXNXNXNXNXNXVXNXNXVXVXSXSXSXSXGXGXGXGXGXGXGXGX",
"GXSXSXGXSXSXSXSXSXSXSXVXVXVXVXVXNXNXNXNXNXcXNXNXNXNXNXVXNXNXNXNXNXNXNXcXcXcXcXcXcXcXcXNXNXcXNXcXNXNXNXNXVXVXVXSXSXSXSXSXGXGXGXGX",
"SXSXSXVXSXSXVXVXVXVXVXVXVXVXNXNXNXNXcXNXcXNXcXcXcXNXNXNXNXNXcXNXcXcXcXlXuXgXgXgXlXlXlXlXlXlXcXcXlXcXcXNXNXVXVXVXSXSXSXSXSXSXSXSX",
"VXVXVXNXVXVXNXNXNXcXcXcXNXcXcXcXcXcXcXcXcXlXcXcXcXcXcXcXlXcXlXlXlXgXgX0X/.2X2XuXgXgXiXgXgXgXgXlXlXlXlXcXcXcXNXNXNXNXNXVXVXVXVXVX",
"NXcXcXNXcXcXcXcXcXlXlXlXlXgXlXlXlXgXgXgXgXgXgXgXlXgXlXgXgXgXgXiXiXuX0X9X:X*Xm.}.<X0XuX0X0XuXuXiXiXiXgXgXgXlXlXlXcXcXcXNXcXcXcXNX",
"lXlXlXlXlXlXlXlXgXgXiXgXiXiXgXiXiXiXiXiXiXiXiXiXiXiXiXiXiXiXuXuX9X2X2X<X<X}.<.*.t..X<X2X9X9X0X0X0X0XuXuXiXiXgXgXlXlXlXlXlXlXlXlX",
"gXgXgXgXiXgXiXiXuXuXuX0XuXuX0XuXuX0X0X0X0X0X0X0X0X0X0X0X0X0X9X2X<X*X@X*X*X/.:.[ 9.].:X:X<X<X2X2X9X9X9X9X0XuX0X9XiXiXiXgXgXgXgXgX",
"iXiXiXiXuXuX0X0X9X9X9X9X9X0X0X0X0X9X9X2X2X2X2X2X9X2X2X9X9X9X9X:X].W.]./..X}.K.w.W.*X@X:X*X:X:X<X<X<X<X<X9X2X:XU.9XiXuXiXuXuXuXuX",
"0XuX0X0X9X9X9X2X2X<X<X:X.X}.}..X}.}.}.@X*X@X@X*X:X<X<X:X@X}.}.W.<.*.k.4.C.K.A.C.Y.Y.Y.Y.Y.W.}..X@X*X*X:X<X:X@X}.2X0X0X0X9X9X0X0X",
"9X9X9X2X9X2X2X2X<X:X*XY.*.] ] ] ] [ *.m.K.U.U.W.@X<X:X.XA.*.[ / I S I S J I J J I I I I I ] c.U.Y.}.@X*X:X.XU.t.*X9X0X2X:X<X2X9X",
":X<X2X2X:X@X@X.X}.].Y.:.Y S C C x C I / ] [ [ :.Y.}.}.U.@.I S C C N N x k k h h h k k k k N ~ [ :.A.W././.U.*.*.W.@X*X}.k.].<X<X",
"f./..X}.W.w.<.:.:.@.X.~ C x x x x N I I S C S ~ X.*.*.X.Y J x k h k N N N x i i r r i r h x x J Y ] X.X.X.X.] ] :.<.<.<.@.9./.].",
"f.k.m.m.k.t.4.<.*.*.[ / ~ Y I I I I Y / Y Y Y ] @.*.*.X./ ~ Y I J J J ~ I S N C C C S I Y Y ~ ~ / [ @.*.*.:.<.4.9.4.9.9.9.t.c.m."
};
