/* XPM */
static char *result[] = {
/* columns rows colors chars-per-pixel */
"64 64 4 1 ",
"  c gray56",
". c gray59",
"X c #A4A4A4",
"o c #BCBCBC",
/* pixels */
"ooooooooXXXXXXXXXXXXXXXXXXXXXXXXXXXXXXXXXXXooooXXooXoooooooooooo",
"ooooooXooooooooXXXXXXXooooooooooooooXXXXXooooooooooooooooooooooo",
"ooooooooooooooooooooooooooooooooooooooooooXooooooooooooooooooooo",
"oooooooooooooooooooooooooooooooooooooooooooooooooooooooooooooooo",
"oooooooooooooooooooooooooooooooooooooooooooooooooooooooooooooooo",
"oooooooooooooooooooooooooooooooooooooooooooooooooooooooooooooooo",
"oooooooooooooooooooooooooooooooooooooooooooooooooooooooooooooooo",
"oooooooooooooooooooooooooooooooooooooooooooooooooooooooooooooooo",
"oooooooooooooooooooooooooooooooooooooooooooooooooooooooooooooooo",
"oooooooooooooooooooooooooooooooooooooooooooooooooooooooooooooooo",
"oooooooooooooooooooooooooooooooooooooooooooooooooooooooooooooooo",
"oooooooooooooooooooooooooooooooooooooooooooooooooooooooooooooooo",
"oooooooooooooooooooooooooooooooooooooooooooooooooooooooooooooooo",
"oooooooooooooooooooooooooooooooooooooooooooooooooooooooooooooooo",
"oooooooooooooooooooooooooooooooooooooooooooooooooooooooooooooooo",
"oooooooooooooooooooooooooooooooooooooooooooooooooooooooooooooooo",
"oooooooooooooooooooooooooooooooooooooooooooooooooooooooooooooooo",
"oooooooooooooooooooooooooooooooooooooooooooooooooooooooooooooooo",
"oooooooooooooooooooooooooooooooooooooooooooooooooooooooooooooooo",
"oooooooooooooooooooooooooooooooooooooooooooooooooooooooooooooooo",
"oooooooooooooooooooooooooooooooooooooooooooooooooooooooooooooooo",
"oooooooooooooooooooooooooooooooooooooooooooooooooooooooooooooooo",
"ooooooooooooooooXXXXXXXXoooooooooooooooooooooooooooooooooooooooo",
"ooooooXoooooooXXXXXXXXXXXooooooooooooooXXXXXXooXoooooooooooooooo",
"ooooooooooooXXXXXXXXXXXXXXooXXXooooXXXXXXXXXXXoXXooooooooooooooo",
"oooooooooooXXXXXXXXXXXXXXXoXXXXXooXXXXXXXXXXXXXXXXoooooooooooooo",
"                                                                ",
"                                                                ",
"XX                       XX                 XXXX       XXXXXXXXX",
"XXXXXX                  XXXX              XXXXXXX    XXXXXXXXXXX",
"XXXXXXX     XXX XX     XXXXXXX    XX    XXXXXXXXXX  XXXXXXXXXXXX",
"XXXXXXXXXXXXXXXXXXXXXXXXXXXXXXXX XXXX   XXXXXXXXXXX XXXXXXXXXXXX",
"XXXXXXXXXXXXXXXXXXXXXXXXXXXXXXXXXXXXXX  XXXXXXXXXXXXXXXXXXXXXXXX",
"XXXXXXXXXXXXXXXXXXXXXXXXXXXXXXXXXXXXXX XXXXXXXXXXXX XXXXXXXXXXXX",
"XXXXXXXXXXXXXXXXXXXXXXXXXXXXXXXXXXXXXX XXXXXXXXXXXXXXXXXXXXXXXXX",
"XXooXXXXXXXXXXXXXXXXXXXXXXXXXXXXXXXXXXXXXXXXXXXXXXXXXXXXXXXXXXXX",
"oXoooXXXXXXXXXXXXXXXXXXXXXXXXXXXXXXXXXXXXXXXXXoXXXXXXXXXXXXXXXXo",
"ooooooXXXXXXXXXXXXXXXXXXXXXXXXXXXXXXXX XXXXXXXooXXXXXXXXXXXXXXXo",
"ooooooXXXXXXXXXXXXXXXXXXXXXXXXXXXXXXXXXXXXXXXoooXXXXXXXXooXXXXoo",
"ooooooXXXXXXXXXXXXXXXXXXXXXXXXXXXXXXXXXXXXXXooooXXXXXXXXoooXoXoo",
"ooooooXXXXXXXXXXXXXXXXXXXXXXXXXXXXXXXXXXXXXXoooooXXXXXXXoooXoXoo",
"oooooooXXXXXXXXXXXXXXXXXXXXXXXXXXXXXXXXXXXXooooooXXXXXXooooXoooo",
"oooooooXXoXXXXXXXXXXXXXXXXXXXXXXXXXXoXXXXXXoooooooXXXXoooooooooo",
"oooooooXXooXXXXXXXXXXXXXXXXXXXXXXXXoooXXXXooooooooXXXooooooooooo",
"oooooooXoooXXXXXXoXXXXXXXXXXXXXXXXXoooooXXooooooooXXoooooooooooo",
"oooooooXoooXXXXXooXXXXXXXXXXXXXXXXooooooXXooooooooXXoooooooooooo",
"oooooooXooooXXXXooXXoXXXXooXXXXXoooooooooXooooooooXXoooooooooooo",
"oooooooXoooooXXoooXoooXXooooXXXoooooooooooooooooooXooooooooooooo",
"ooooooooooooooXoooooooXXooooooooooooooooooooooooooXooooooooooooo",
"oooooooooooooooooooooooXooooXoooooooooooooooooooooXooooooooooooo",
"oooooooooooooooooooooooooooooooooooooooooooooooooooooooooooooooo",
"oooooooooooooooooooooooooooooooooooooooooooooooooooooooooooooooo",
"oooooooooooooooooooooooooooooooooooooooooooooooooooooooooooooooo",
"oooooooooooooooooooooooooooooooooooooooooooooooooooooooooooooooo",
"oooooooooooooooooooooooooooooooooooo.ooooooooooooooooooooooooooo",
"oooooooooooooooooooooooooooooooooooooo.ooooooooooooooooooooooooo",
"oooooooooooooooooooooooooooooooooooooo...ooooooooooooooooooooooo",
"oooooooooooooooooooooooooooooooooooooo...ooooooooooooooooooooooo",
"ooooooooooooooooooooooooooooooooooooooo.ooooooooooooooo.oooooooo",
"oooooooooooooooooooooooooooooooo..o.oooooooooooooooooooooooooooo",
"oooooooooooo.......oooooooooo.................ooooooooo.oooooooo",
"ooooooooooo..... .......oooo.....................ooooo..oooo.ooo",
".oooo.......      ..   .......    ....       . ...............oo",
"..........         .    ....       ..             .............."
};
